<?xml version="1.0" encoding="utf-8"?>
<!-- Generator: Adobe Illustrator 25.2.1, SVG Export Plug-In . SVG Version: 6.00 Build 0)  -->
<svg version="1.1" id="Layer_1" xmlns="http://www.w3.org/2000/svg" xmlns:xlink="http://www.w3.org/1999/xlink" x="0px" y="0px"
	 viewBox="0 0 421 152" style="enable-background:new 0 0 421 152;" xml:space="preserve">
<style type="text/css">
	.st0{fill-rule:evenodd;clip-rule:evenodd;fill:#EF95EF;}
	.st1{fill-rule:evenodd;clip-rule:evenodd;fill:#4A4A4A;}
	.st2{fill:none;stroke:#4A4A4A;stroke-linecap:square;}
	.st3{fill:#72DC7A;}
	.st4{fill:#9B9B9B;}
</style>
<desc>Created with Sketch.</desc>
<g id="by-value">
	<path id="calculateArea_x28_10_x2C_-6_x29_" class="st0" d="M118.2,73.7L118.2,73.7c0-0.2,0-0.3,0.1-0.4s0.2-0.1,0.4-0.1
		c0.2,0,0.3,0.1,0.4,0.2s0.1,0.4,0.1,0.7v1.4c0,0.2,0,0.3-0.1,0.4s-0.2,0.1-0.4,0.1c-0.1,0-0.2,0-0.3-0.1s-0.2-0.2-0.3-0.5
		c-0.2-0.4-0.5-0.7-0.9-0.9s-0.7-0.3-1.2-0.3c-0.8,0-1.4,0.2-1.9,0.7s-0.7,1-0.7,1.7c0,0.7,0.2,1.3,0.7,1.8s1,0.7,1.8,0.7
		c0.3,0,0.6,0,0.9-0.1s0.6-0.2,0.8-0.4c0.1-0.1,0.2-0.1,0.4-0.3c0.3-0.3,0.6-0.4,0.7-0.4c0.2,0,0.3,0,0.4,0.1s0.1,0.2,0.1,0.4
		c0,0.4-0.4,0.8-1.1,1.2s-1.5,0.6-2.3,0.6c-1.1,0-1.9-0.3-2.6-1c-0.7-0.7-1.1-1.5-1.1-2.5s0.4-1.9,1.1-2.5s1.6-1,2.6-1
		c0.4,0,0.7,0.1,1.1,0.2S117.8,73.5,118.2,73.7z M126.6,76.8c-0.3-0.1-0.5-0.2-0.8-0.2s-0.5-0.1-0.8-0.1c-0.8,0-1.3,0.1-1.8,0.4
		s-0.7,0.6-0.7,1c0,0.3,0.1,0.6,0.4,0.8s0.6,0.3,1,0.3c0.6,0,1.2-0.2,1.7-0.5s0.8-0.7,0.8-1V76.8z M126.7,79.1
		c-0.4,0.4-0.8,0.6-1.3,0.8s-1,0.3-1.5,0.3c-0.7,0-1.3-0.2-1.8-0.6s-0.7-0.9-0.7-1.6c0-0.8,0.3-1.4,0.9-1.8s1.4-0.6,2.5-0.6
		c0.3,0,0.6,0,0.9,0.1s0.6,0.1,0.9,0.2v-0.1c0-0.6-0.1-1-0.4-1.2s-0.7-0.4-1.3-0.4c-0.4,0-0.8,0.1-1.3,0.3s-0.8,0.3-0.9,0.3
		c-0.1,0-0.3-0.1-0.4-0.2s-0.1-0.3-0.1-0.4c0-0.3,0.3-0.5,0.8-0.7s1.2-0.3,2.1-0.3c0.9,0,1.5,0.2,1.9,0.7s0.7,1.1,0.7,1.9V79h0.4
		c0.3,0,0.6,0,0.7,0.1s0.2,0.2,0.2,0.4c0,0.2,0,0.3-0.1,0.4s-0.2,0.1-0.4,0.1h-1.1c-0.1,0-0.2,0-0.3-0.1s-0.1-0.2-0.2-0.4
		L126.7,79.1z M133.5,71.5h-1.2c-0.5,0-0.8,0-0.9-0.1s-0.2-0.2-0.2-0.4c0-0.2,0.1-0.3,0.2-0.4s0.2-0.1,0.4-0.1h2.4
		c0.1,0,0.2,0,0.3,0.1s0.1,0.1,0.1,0.2V79h2.3c0.2,0,0.3,0,0.4,0.1s0.1,0.2,0.1,0.4c0,0.2,0,0.3-0.1,0.4s-0.2,0.1-0.5,0.1h-5.4
		c-0.2,0-0.3,0-0.4-0.1s-0.2-0.2-0.2-0.4c0-0.2,0.1-0.3,0.2-0.4s0.3-0.1,0.5-0.1h2V71.5z M145.2,73.7L145.2,73.7
		c0-0.2,0-0.3,0.1-0.4s0.2-0.1,0.4-0.1c0.2,0,0.3,0.1,0.4,0.2s0.1,0.4,0.1,0.7v1.4c0,0.2,0,0.3-0.1,0.4s-0.2,0.1-0.4,0.1
		c-0.1,0-0.2,0-0.3-0.1s-0.2-0.2-0.3-0.5c-0.2-0.4-0.5-0.7-0.9-0.9s-0.7-0.3-1.2-0.3c-0.8,0-1.4,0.2-1.9,0.7s-0.7,1-0.7,1.7
		c0,0.7,0.2,1.3,0.7,1.8s1,0.7,1.8,0.7c0.3,0,0.6,0,0.9-0.1s0.6-0.2,0.8-0.4c0.1-0.1,0.2-0.1,0.4-0.3c0.3-0.3,0.6-0.4,0.7-0.4
		c0.2,0,0.3,0,0.4,0.1s0.1,0.2,0.1,0.4c0,0.4-0.4,0.8-1.1,1.2s-1.5,0.6-2.3,0.6c-1.1,0-1.9-0.3-2.6-1s-1.1-1.5-1.1-2.5
		s0.4-1.9,1.1-2.5s1.6-1,2.6-1c0.4,0,0.7,0.1,1.1,0.2S144.8,73.5,145.2,73.7z M150.2,77.3c0,0.6,0.1,1.1,0.4,1.3s0.7,0.4,1.2,0.4
		c0.5,0,1-0.2,1.4-0.5s0.6-0.8,0.6-1.3v-3h-1c-0.2,0-0.3,0-0.4-0.1s-0.1-0.2-0.1-0.4c0-0.2,0-0.3,0.1-0.4s0.2-0.1,0.4-0.1h1.6
		c0.2,0,0.3,0,0.4,0.1s0.1,0.3,0.1,0.6v5h0.3c0.2,0,0.4,0,0.5,0.1s0.2,0.2,0.2,0.4c0,0.2-0.1,0.3-0.2,0.4s-0.2,0.1-0.4,0.1h-1.1
		c-0.1,0-0.2,0-0.3-0.1s-0.1-0.1-0.1-0.2v-0.5c-0.5,0.4-0.9,0.6-1.2,0.7s-0.7,0.2-1.1,0.2c-0.8,0-1.4-0.2-1.8-0.6s-0.6-1.1-0.6-1.9
		v-3.3h-0.2c-0.3,0-0.6,0-0.7-0.1s-0.2-0.2-0.2-0.4c0-0.2,0-0.3,0.1-0.4s0.2-0.1,0.4-0.1h1.1c0.2,0,0.3,0,0.4,0.1s0.1,0.2,0.1,0.5
		V77.3z M160.5,71.5h-1.2c-0.5,0-0.8,0-0.9-0.1s-0.2-0.2-0.2-0.4c0-0.2,0.1-0.3,0.2-0.4s0.2-0.1,0.4-0.1h2.4c0.1,0,0.2,0,0.3,0.1
		s0.1,0.1,0.1,0.2V79h2.3c0.2,0,0.3,0,0.4,0.1s0.1,0.2,0.1,0.4c0,0.2,0,0.3-0.1,0.4s-0.2,0.1-0.5,0.1h-5.4c-0.2,0-0.3,0-0.4-0.1
		s-0.2-0.2-0.2-0.4c0-0.2,0.1-0.3,0.2-0.4s0.3-0.1,0.5-0.1h2V71.5z M171.6,76.8c-0.3-0.1-0.5-0.2-0.8-0.2s-0.5-0.1-0.8-0.1
		c-0.8,0-1.3,0.1-1.8,0.4s-0.7,0.6-0.7,1c0,0.3,0.1,0.6,0.4,0.8s0.6,0.3,1,0.3c0.6,0,1.2-0.2,1.7-0.5s0.8-0.7,0.8-1V76.8z
		 M171.7,79.1c-0.4,0.4-0.8,0.6-1.3,0.8s-1,0.3-1.5,0.3c-0.7,0-1.3-0.2-1.8-0.6s-0.7-0.9-0.7-1.6c0-0.8,0.3-1.4,0.9-1.8
		s1.4-0.6,2.5-0.6c0.3,0,0.6,0,0.9,0.1s0.6,0.1,0.9,0.2v-0.1c0-0.6-0.1-1-0.4-1.2s-0.7-0.4-1.3-0.4c-0.4,0-0.8,0.1-1.3,0.3
		s-0.8,0.3-0.9,0.3c-0.1,0-0.3-0.1-0.4-0.2s-0.1-0.3-0.1-0.4c0-0.3,0.3-0.5,0.8-0.7s1.2-0.3,2.1-0.3c0.9,0,1.5,0.2,1.9,0.7
		s0.7,1.1,0.7,1.9V79h0.4c0.3,0,0.6,0,0.7,0.1s0.2,0.2,0.2,0.4c0,0.2,0,0.3-0.1,0.4s-0.2,0.1-0.4,0.1h-1.1c-0.1,0-0.2,0-0.3-0.1
		s-0.1-0.2-0.2-0.4L171.7,79.1z M181,73.6c0.2,0,0.4,0,0.5,0.1s0.2,0.2,0.2,0.4c0,0.2-0.1,0.3-0.2,0.4s-0.3,0.1-0.5,0.1h-3v2.4
		c0,0.8,0.1,1.3,0.3,1.6s0.6,0.4,1.1,0.4c0.4,0,1-0.1,1.6-0.4s1-0.4,1.1-0.4c0.1,0,0.3,0,0.3,0.1s0.1,0.2,0.1,0.4
		c0,0.2-0.1,0.3-0.2,0.4s-0.3,0.2-0.6,0.3c-0.5,0.2-0.9,0.3-1.3,0.4s-0.7,0.1-1.1,0.1c-0.6,0-1.1-0.1-1.4-0.3s-0.7-0.5-0.9-0.8
		c-0.1-0.2-0.2-0.4-0.2-0.6s-0.1-0.6-0.1-1.1v-2.7h-1.2c-0.2,0-0.4,0-0.4-0.1s-0.1-0.2-0.1-0.4c0-0.2,0.1-0.3,0.2-0.4
		s0.4-0.1,0.8-0.1h0.8v-1.9c0-0.2,0-0.4,0.1-0.5s0.2-0.2,0.4-0.2c0.2,0,0.4,0.1,0.4,0.2s0.1,0.4,0.1,0.8v1.5H181z M185.5,76.9
		c0,0.7,0.3,1.2,0.7,1.6s1,0.6,1.8,0.6c0.6,0,1.2-0.2,1.9-0.5s1.1-0.5,1.2-0.5c0.1,0,0.3,0,0.4,0.1s0.1,0.2,0.1,0.3
		c0,0.1-0.1,0.3-0.2,0.4s-0.3,0.2-0.5,0.3c-0.5,0.2-1,0.4-1.5,0.5s-1,0.2-1.5,0.2c-1.1,0-2-0.3-2.7-1s-1-1.5-1-2.6
		c0-1.1,0.4-2,1.1-2.6s1.6-1,2.8-1c1,0,1.9,0.3,2.6,0.9s1,1.4,1,2.3c0,0.3-0.1,0.5-0.2,0.5s-0.4,0.1-0.9,0.1H185.5z M185.6,76h4.8
		c-0.1-0.6-0.3-1-0.7-1.4s-0.9-0.5-1.5-0.5c-0.6,0-1.2,0.2-1.6,0.5S185.7,75.4,185.6,76z M195.5,76.2h3l-1.6-3.9L195.5,76.2z
		 M195.9,72.4h-1.1c-0.3,0-0.5,0-0.6-0.1S194,72,194,71.8c0-0.2,0.1-0.3,0.2-0.4s0.4-0.1,0.9-0.1h2.1c0.3,0,0.5,0,0.5,0.1
		s0.2,0.2,0.3,0.4l2.9,7.2h0.1c0.3,0,0.4,0,0.5,0.1s0.1,0.2,0.1,0.4c0,0.2,0,0.3-0.1,0.4s-0.3,0.1-0.5,0.1h-2c-0.4,0-0.6,0-0.7-0.1
		s-0.2-0.2-0.2-0.4c0-0.2,0.1-0.3,0.2-0.4s0.3-0.1,0.6-0.1h0.7l-0.7-1.7h-3.7l-0.6,1.7h0.7c0.3,0,0.5,0,0.7,0.1s0.2,0.2,0.2,0.4
		c0,0.2-0.1,0.3-0.2,0.4s-0.3,0.1-0.7,0.1h-1.9c-0.3,0-0.5,0-0.6-0.1s-0.2-0.2-0.2-0.4c0-0.2,0.1-0.3,0.2-0.4s0.3-0.1,0.6-0.1h0.1
		L195.9,72.4z M205.3,79h2.4c0.2,0,0.3,0,0.4,0.1s0.1,0.2,0.1,0.4c0,0.2,0,0.3-0.1,0.4s-0.2,0.1-0.5,0.1h-4.8c-0.2,0-0.3,0-0.4-0.1
		s-0.1-0.2-0.1-0.4c0-0.2,0.1-0.3,0.2-0.4s0.3-0.1,0.5-0.1h1.3v-4.7h-0.5c-0.5,0-0.8,0-0.9-0.1s-0.2-0.2-0.2-0.4
		c0-0.2,0-0.3,0.1-0.4s0.2-0.1,0.4-0.1h1.7c0.1,0,0.2,0,0.3,0.1s0.1,0.1,0.1,0.2v1.2c0.5-0.6,0.9-1,1.5-1.3s1-0.4,1.6-0.4
		c0.4,0,0.8,0.1,1.1,0.3s0.4,0.4,0.4,0.7c0,0.2-0.1,0.3-0.2,0.5s-0.3,0.2-0.4,0.2c-0.1,0-0.3-0.1-0.6-0.2s-0.5-0.2-0.7-0.2
		c-0.4,0-0.8,0.1-1.2,0.4s-0.9,0.7-1.4,1.3V79z M212.5,76.9c0,0.7,0.3,1.2,0.7,1.6s1,0.6,1.8,0.6c0.6,0,1.2-0.2,1.9-0.5
		s1.1-0.5,1.2-0.5c0.1,0,0.3,0,0.4,0.1s0.1,0.2,0.1,0.3c0,0.1-0.1,0.3-0.2,0.4s-0.3,0.2-0.5,0.3c-0.5,0.2-1,0.4-1.5,0.5
		s-1,0.2-1.5,0.2c-1.1,0-2-0.3-2.7-1s-1-1.5-1-2.6c0-1.1,0.4-2,1.1-2.6s1.6-1,2.8-1c1,0,1.9,0.3,2.6,0.9s1,1.4,1,2.3
		c0,0.3-0.1,0.5-0.2,0.5s-0.4,0.1-0.9,0.1H212.5z M212.6,76h4.8c-0.1-0.6-0.3-1-0.7-1.4s-0.9-0.5-1.5-0.5c-0.6,0-1.2,0.2-1.6,0.5
		S212.7,75.4,212.6,76z M225.6,76.8c-0.3-0.1-0.5-0.2-0.8-0.2s-0.5-0.1-0.8-0.1c-0.8,0-1.3,0.1-1.8,0.4s-0.7,0.6-0.7,1
		c0,0.3,0.1,0.6,0.4,0.8s0.6,0.3,1,0.3c0.6,0,1.2-0.2,1.7-0.5s0.8-0.7,0.8-1V76.8z M225.7,79.1c-0.4,0.4-0.8,0.6-1.3,0.8
		s-1,0.3-1.5,0.3c-0.7,0-1.3-0.2-1.8-0.6s-0.7-0.9-0.7-1.6c0-0.8,0.3-1.4,0.9-1.8s1.4-0.6,2.5-0.6c0.3,0,0.6,0,0.9,0.1
		s0.6,0.1,0.9,0.2v-0.1c0-0.6-0.1-1-0.4-1.2s-0.7-0.4-1.3-0.4c-0.4,0-0.8,0.1-1.3,0.3s-0.8,0.3-0.9,0.3c-0.1,0-0.3-0.1-0.4-0.2
		s-0.1-0.3-0.1-0.4c0-0.3,0.3-0.5,0.8-0.7s1.2-0.3,2.1-0.3c0.9,0,1.5,0.2,1.9,0.7s0.7,1.1,0.7,1.9V79h0.4c0.3,0,0.6,0,0.7,0.1
		s0.2,0.2,0.2,0.4c0,0.2,0,0.3-0.1,0.4s-0.2,0.1-0.4,0.1h-1.1c-0.1,0-0.2,0-0.3-0.1s-0.1-0.2-0.2-0.4L225.7,79.1z"/>
	<path id="ARGUMENTS-AS-VALUES" class="st1" d="M198.5,34l2.9-7.9h1.6l2.9,7.9h-1.5l-0.8-2.2h-2.8L200,34H198.5z M201.2,30.7h2
		c-0.6-2.1-1-3.1-1-3.2L201.2,30.7z M206.6,34v-7.9h2.9c0.4,0,0.7,0,1,0.1s0.6,0.1,0.8,0.2s0.5,0.2,0.6,0.4s0.3,0.4,0.4,0.6
		s0.1,0.6,0.1,0.9c0,1-0.5,1.7-1.4,2.1c0.2,0.2,0.4,0.6,0.7,1.2L213,34h-1.6l-0.9-2.1c-0.3-0.7-0.6-1.2-0.6-1.3c-0.1,0-0.3,0-0.6,0
		l-1.2,0V34H206.6z M209.6,29.6c0.6,0,1-0.1,1.2-0.3s0.4-0.5,0.4-1c0-0.4-0.1-0.7-0.4-0.9s-0.6-0.3-1.1-0.3H208v2.4
		c0.1,0,0.3,0,0.8,0S209.6,29.6,209.6,29.6z M217.6,34.1c-1.2,0-2.1-0.4-2.8-1.1s-1-1.7-1-3c0-0.8,0.2-1.5,0.5-2.1s0.8-1.1,1.4-1.4
		s1.3-0.5,2.2-0.5c1,0,1.8,0.2,2.5,0.6l-0.5,1.1c-0.7-0.4-1.3-0.5-2-0.5c-0.8,0-1.4,0.3-1.9,0.8s-0.7,1.2-0.7,2.1
		c0,0.9,0.2,1.6,0.6,2.1s1,0.8,1.8,0.8c0.5,0,1-0.1,1.4-0.2v-1.8h-1.6l0-1.1h3v3.8c-0.5,0.2-0.9,0.3-1.4,0.4S218.1,34.1,217.6,34.1z
		 M225,34.1c-1,0-1.8-0.3-2.3-0.8s-0.8-1.2-0.8-2.2v-5h1.5V31c0,0.7,0.1,1.1,0.4,1.4s0.7,0.5,1.3,0.5c0.6,0,1-0.2,1.3-0.5
		s0.4-0.8,0.4-1.4v-4.9h1.5v5c0,0.9-0.3,1.6-0.8,2.2C226.9,33.9,226.1,34.1,225,34.1z M229.8,34v-7.9h1.7l2.4,5.7l2.4-5.7h1.7V34
		h-1.3v-3.9l0-2.2l-0.2,0.6l-2,5h-1.2l-2-5l-0.2-0.6l0,2.3V34H229.8z M239.7,34v-7.9h4.8l-0.1,1.2h-3.3v2h3.1v1.2h-3.1v2.4h3.4
		l0,1.2H239.7z M245.9,34v-7.9h1.5c0.3,0.4,0.8,1.3,1.7,2.6s1.4,2.1,1.6,2.4c0.1,0.1,0.1,0.2,0.3,0.4s0.2,0.3,0.3,0.4
		c0-1.2,0-1.9,0-1.9v-4h1.3V34H251l-3.6-5.5l-0.3-0.4c0,0.9,0,1.6,0,2v4H245.9z M255.8,34v-6.7h-2.3v-1.2h6v1.2h-2.3V34H255.8z
		 M262.7,34.1c-0.9,0-1.8-0.2-2.6-0.7l0.4-1.2c0.3,0.2,0.7,0.3,1.1,0.5s0.8,0.2,1.2,0.2c0.5,0,0.8-0.1,1-0.3s0.4-0.5,0.4-0.9
		c0-0.5-0.3-0.8-1-1c0,0-0.2-0.1-0.4-0.1c-0.2-0.1-0.4-0.1-0.6-0.2s-0.3-0.1-0.4-0.1c-1.1-0.4-1.6-1.1-1.6-2.1
		c0-0.7,0.3-1.3,0.8-1.6s1.2-0.6,2-0.6c0.9,0,1.8,0.2,2.5,0.6l-0.4,1.1c-0.7-0.3-1.4-0.5-2-0.5c-0.4,0-0.8,0.1-1,0.2
		s-0.3,0.4-0.4,0.8c0,0.4,0.2,0.7,0.6,0.9c0.1,0,0.3,0.1,0.6,0.2s0.6,0.2,0.7,0.2c0.7,0.2,1.2,0.5,1.5,0.9s0.5,0.8,0.5,1.5
		c0,0.7-0.3,1.3-0.8,1.7S263.6,34.1,262.7,34.1z M268.9,34l2.9-7.9h1.6l2.9,7.9h-1.5l-0.8-2.2h-2.8l-0.8,2.2H268.9z M271.6,30.7h2
		c-0.6-2.1-1-3.1-1-3.2L271.6,30.7z M279.3,34.1c-0.9,0-1.8-0.2-2.6-0.7l0.4-1.2c0.3,0.2,0.7,0.3,1.1,0.5s0.8,0.2,1.2,0.2
		c0.5,0,0.8-0.1,1-0.3s0.4-0.5,0.4-0.9c0-0.5-0.3-0.8-1-1c0,0-0.2-0.1-0.4-0.1c-0.2-0.1-0.4-0.1-0.6-0.2s-0.3-0.1-0.4-0.1
		c-1.1-0.4-1.6-1.1-1.6-2.1c0-0.7,0.3-1.3,0.8-1.6s1.2-0.6,2-0.6c0.9,0,1.8,0.2,2.5,0.6l-0.4,1.1c-0.7-0.3-1.4-0.5-2-0.5
		c-0.4,0-0.8,0.1-1,0.2s-0.3,0.4-0.4,0.8c0,0.4,0.2,0.7,0.6,0.9c0.1,0,0.3,0.1,0.6,0.2s0.6,0.2,0.7,0.2c0.7,0.2,1.2,0.5,1.5,0.9
		s0.5,0.8,0.5,1.5c0,0.7-0.3,1.3-0.8,1.7S280.2,34.1,279.3,34.1z M288.3,34l-2.9-7.9h1.5l1.7,4.9c0.1,0.2,0.2,0.7,0.4,1.5
		c0-0.1,0.1-0.3,0.2-0.7c0.1-0.4,0.2-0.7,0.2-0.8c0-0.1,0.3-0.9,0.8-2.4s0.8-2.3,0.8-2.4h1.5l-2.8,7.9H288.3z M292,34l2.9-7.9h1.6
		l2.9,7.9h-1.5l-0.8-2.2h-2.8l-0.8,2.2H292z M294.7,30.7h2c-0.6-2.1-1-3.1-1-3.2L294.7,30.7z M300.1,34v-7.9h1.5v6.7h3.3l0,1.2
		H300.1z M308.9,34.1c-1,0-1.8-0.3-2.3-0.8s-0.8-1.2-0.8-2.2v-5h1.5V31c0,0.7,0.1,1.1,0.4,1.4s0.7,0.5,1.3,0.5c0.6,0,1-0.2,1.3-0.5
		s0.4-0.8,0.4-1.4v-4.9h1.5v5c0,0.9-0.3,1.6-0.8,2.2S310,34.1,308.9,34.1z M313.8,34v-7.9h4.8l-0.1,1.2h-3.3v2h3.1v1.2h-3.1v2.4h3.4
		l0,1.2H313.8z M322.1,34.1c-0.9,0-1.8-0.2-2.6-0.7l0.4-1.2c0.3,0.2,0.7,0.3,1.1,0.5s0.8,0.2,1.2,0.2c0.5,0,0.8-0.1,1-0.3
		s0.4-0.5,0.4-0.9c0-0.5-0.3-0.8-1-1c0,0-0.2-0.1-0.4-0.1c-0.2-0.1-0.4-0.1-0.6-0.2s-0.3-0.1-0.4-0.1c-1.1-0.4-1.6-1.1-1.6-2.1
		c0-0.7,0.3-1.3,0.8-1.6s1.2-0.6,2-0.6c0.9,0,1.8,0.2,2.5,0.6l-0.4,1.1c-0.7-0.3-1.4-0.5-2-0.5c-0.4,0-0.8,0.1-1,0.2
		s-0.3,0.4-0.4,0.8c0,0.4,0.2,0.7,0.6,0.9c0.1,0,0.3,0.1,0.6,0.2s0.6,0.2,0.7,0.2c0.7,0.2,1.2,0.5,1.5,0.9s0.5,0.8,0.5,1.5
		c0,0.7-0.3,1.3-0.8,1.7S323,34.1,322.1,34.1z"/>
	
		<g id="Group" transform="translate(261.500000, 51.500000) rotate(-360.000000) translate(-261.500000, -51.500000) translate(239.000000, 40.000000)">
		<path id="Line-4-Copy" class="st2" d="M44,22.5V12"/>
		<path id="Line-4-Copy-2" class="st2" d="M1,22.5V12"/>
		<path id="Line-5-Copy" class="st2" d="M44,11H1"/>
		<path id="Line-6-Copy" class="st2" d="M23,11V0.5"/>
	</g>
	
		<g id="Group-2" transform="translate(170.000000, 99.000000) rotate(-180.000000) translate(-170.000000, -99.000000) translate(112.000000, 87.000000)">
		<path id="Line-4-Copy_1_" class="st2" d="M115,24V13"/>
		<path id="Line-4-Copy-2_1_" class="st2" d="M1,24c0,0,0-3.7,0-11"/>
		<path id="Line-5-Copy_1_" class="st2" d="M115,12H2"/>
		<path id="Line-6-Copy_1_" class="st2" d="M59,12V0"/>
	</g>
	<path id="IDENTIFIER" class="st1" d="M141.3,125v-7.9h1.5v7.9H141.3z M146,123.8h1c0.9,0,1.6-0.2,2.1-0.7c0.5-0.5,0.7-1.2,0.7-2.1
		c0-1-0.2-1.7-0.7-2.1s-1.2-0.7-2.2-0.7H146V123.8z M144.5,125v-7.9h2.3c0.7,0,1.3,0.1,1.8,0.2c0.5,0.2,1,0.4,1.4,0.7
		s0.7,0.7,0.9,1.2s0.3,1.1,0.3,1.7c0,1.3-0.4,2.2-1.1,2.9s-1.8,1-3.2,1H144.5z M152.6,125v-7.9h4.8l-0.1,1.2h-3.3v2h3.1v1.2h-3.1
		v2.4h3.4l0,1.2H152.6z M158.8,125v-7.9h1.5c0.3,0.4,0.8,1.3,1.7,2.6s1.4,2.1,1.6,2.4c0.1,0.1,0.1,0.2,0.3,0.4s0.2,0.3,0.3,0.4
		c0-1.2,0-1.9,0-1.9v-4h1.3v7.9h-1.6l-3.6-5.5l-0.3-0.4c0,0.9,0,1.6,0,2v4H158.8z M168.7,125v-6.7h-2.3v-1.2h6v1.2h-2.3v6.7H168.7z
		 M173.4,125v-7.9h1.5v7.9H173.4z M176.6,125v-7.9h4.7l-0.1,1.2H178v2.2h3v1.1h-3v3.3H176.6z M182.6,125v-7.9h1.5v7.9H182.6z
		 M185.8,125v-7.9h4.8l-0.1,1.2h-3.3v2h3.1v1.2h-3.1v2.4h3.4l0,1.2H185.8z M191.9,125v-7.9h2.9c0.4,0,0.7,0,1,0.1s0.6,0.1,0.8,0.2
		s0.5,0.2,0.6,0.4s0.3,0.4,0.4,0.6s0.1,0.6,0.1,0.9c0,1-0.5,1.7-1.4,2.1c0.2,0.2,0.4,0.6,0.7,1.2l1.2,2.4h-1.6l-0.9-2.1
		c-0.3-0.7-0.6-1.2-0.6-1.3c-0.1,0-0.3,0-0.6,0l-1.2,0v3.4H191.9z M194.9,120.6c0.6,0,1-0.1,1.2-0.3s0.4-0.5,0.4-1
		c0-0.4-0.1-0.7-0.4-0.9s-0.6-0.3-1.1-0.3h-1.7v2.4c0.1,0,0.3,0,0.8,0S194.9,120.6,194.9,120.6z"/>
	<path id="Path" class="st3" d="M240.3,72.1l-0.1,0c0,0-0.1,0-0.1,0c-0.2,0-0.3,0-0.4-0.1s-0.1-0.2-0.1-0.3c0-0.1,0-0.2,0.1-0.3
		s0.2-0.2,0.4-0.2l2.2-0.6c0.1,0,0.1,0,0.2,0s0.1,0,0.2,0c0.1,0,0.2,0,0.2,0.1s0.1,0.2,0.1,0.3V79h1.2c0.4,0,0.7,0,0.8,0.1
		s0.2,0.2,0.2,0.4c0,0.2,0,0.3-0.1,0.4s-0.2,0.1-0.4,0.1H240c-0.2,0-0.3,0-0.4-0.1s-0.1-0.2-0.1-0.4c0-0.2,0.1-0.3,0.2-0.4
		s0.4-0.1,0.8-0.1h1.2v-7.2L240.3,72.1z"/>
	<path id="Combined-Shape" class="st3" d="M251,80.2c-0.9,0-1.6-0.4-2.2-1.3s-0.8-2.1-0.8-3.6c0-1.5,0.3-2.7,0.8-3.6
		s1.3-1.3,2.2-1.3s1.6,0.4,2.2,1.3s0.8,2.1,0.8,3.6s-0.3,2.7-0.8,3.6S251.9,80.2,251,80.2z M251,71.6c-0.6,0-1,0.3-1.3,1
		s-0.5,1.6-0.5,2.8c0,1.2,0.2,2.2,0.5,2.8s0.7,1,1.3,1c0.6,0,1-0.3,1.3-1s0.5-1.6,0.5-2.8c0-1.2-0.2-2.1-0.5-2.8
		S251.6,71.6,251,71.6z"/>
	<path id="Combined-Shape_1_" class="st3" d="M276.3,75.2c0.3-0.3,0.6-0.6,0.9-0.8s0.7-0.3,1.1-0.3c0.8,0,1.4,0.3,2,0.9
		s0.8,1.3,0.8,2.1c0,0.9-0.3,1.6-0.8,2.2s-1.2,0.9-2,0.9c-1,0-1.7-0.4-2.3-1.1S275,77.3,275,76c0-1.7,0.4-3,1.3-4s2-1.5,3.4-1.5
		c0.5,0,0.8,0,0.9,0.1s0.2,0.2,0.2,0.4c0,0.3-0.3,0.5-0.9,0.5c-0.4,0-0.7,0-0.9,0.1c-0.8,0.1-1.4,0.5-1.9,1.2S276.4,74.2,276.3,75.2
		z M276.4,77.2c0,0.6,0.2,1.1,0.5,1.5s0.7,0.6,1.2,0.6c0.5,0,0.9-0.2,1.2-0.5s0.5-0.8,0.5-1.4c0-0.6-0.2-1.1-0.5-1.5
		s-0.7-0.6-1.2-0.6c-0.5,0-0.9,0.2-1.2,0.5S276.4,76.6,276.4,77.2z"/>
	<path id="Path_1_" class="st4" d="M234.5,71.4c0,0.1-0.1,0.3-0.2,0.7s-0.3,0.6-0.4,0.8c-0.3,0.8-0.6,1.5-0.7,2.1s-0.2,1.3-0.2,2
		c0,0.6,0.1,1.3,0.2,1.9s0.3,1.2,0.5,1.8c0.1,0.3,0.3,0.7,0.5,1.1s0.3,0.7,0.3,0.8c0,0.1,0,0.2-0.1,0.3s-0.1,0.1-0.2,0.1
		c-0.2,0-0.3-0.1-0.5-0.2s-0.4-0.4-0.6-0.8c-0.5-0.7-0.9-1.5-1.2-2.4s-0.4-1.7-0.4-2.6c0-0.8,0.1-1.6,0.3-2.4s0.5-1.5,1-2.2
		c0.3-0.5,0.5-0.8,0.8-1s0.5-0.4,0.6-0.4c0.1,0,0.1,0,0.2,0.1S234.5,71.3,234.5,71.4z"/>
	<path id="Path_2_" class="st4" d="M259.1,78c0-0.2,0.1-0.3,0.2-0.3s0.2-0.1,0.3-0.1h1.6c0.1,0,0.1,0,0.2,0s0.1,0.1,0.1,0.1
		c0,0,0,0.1,0,0.1s0,0.1,0,0.1l-2,4.2c0,0.1-0.1,0.1-0.1,0.2s-0.1,0.1-0.2,0.1c0,0,0,0,0,0s0,0-0.1,0l-0.5-0.2
		c-0.1,0-0.1-0.1-0.2-0.1s-0.1-0.1-0.1-0.2v-0.1c0,0,0,0,0-0.1L259.1,78z"/>
	<path id="Path_3_" class="st4" d="M285.5,82.6c0-0.1,0.1-0.3,0.2-0.6s0.3-0.6,0.4-0.8c0.3-0.8,0.6-1.5,0.7-2.1s0.2-1.3,0.2-2
		c0-0.6-0.1-1.2-0.2-1.8s-0.3-1.2-0.5-1.8c-0.1-0.3-0.3-0.7-0.5-1.1s-0.3-0.7-0.3-0.8c0-0.1,0-0.2,0.1-0.2s0.1-0.1,0.2-0.1
		c0.2,0,0.3,0.1,0.5,0.2s0.4,0.4,0.6,0.8c0.5,0.7,0.9,1.5,1.2,2.4s0.4,1.7,0.4,2.6c0,0.8-0.1,1.6-0.3,2.4s-0.5,1.5-1,2.2
		c-0.3,0.5-0.6,0.8-0.8,1.1s-0.4,0.3-0.6,0.3c-0.1,0-0.1,0-0.2-0.1S285.5,82.7,285.5,82.6z"/>
	<path id="Path_4_" class="st4" d="M295.1,78.2c0-0.2,0.1-0.3,0.2-0.3s0.2-0.1,0.3-0.1h1.5c0.1,0,0.1,0,0.2,0s0.1,0.1,0.1,0.1
		c0,0,0,0,0,0.1s0,0.1,0,0.1l-1.9,3.9c0,0.1-0.1,0.1-0.1,0.2s-0.1,0.1-0.2,0.1c0,0-0.1,0-0.1,0s0,0-0.1,0l-0.5-0.2
		c-0.1,0-0.1-0.1-0.2-0.1s-0.1-0.1-0.1-0.1c0,0,0,0,0-0.1s0-0.1,0-0.1L295.1,78.2z"/>
	<path id="Path_5_" class="st4" d="M294.5,74.7c0-0.4,0.1-0.7,0.4-0.9s0.6-0.4,1-0.4c0.4,0,0.8,0.1,1.1,0.4s0.4,0.6,0.4,0.9
		s-0.1,0.7-0.4,0.9s-0.6,0.4-1.1,0.4c-0.4,0-0.8-0.1-1-0.4S294.5,75.1,294.5,74.7z"/>
</g>
</svg>
