<?xml version="1.0" encoding="utf-8"?>
<!-- Generator: Adobe Illustrator 25.2.1, SVG Export Plug-In . SVG Version: 6.00 Build 0)  -->
<svg version="1.1" id="Layer_1" xmlns="http://www.w3.org/2000/svg" xmlns:xlink="http://www.w3.org/1999/xlink" x="0px" y="0px"
	 viewBox="0 0 421 187" style="enable-background:new 0 0 421 187;" xml:space="preserve">
<style type="text/css">
	.st0{fill-rule:evenodd;clip-rule:evenodd;fill:#4A90E2;}
	.st1{fill:none;stroke:#000000;stroke-linecap:square;}
	.st2{fill:none;stroke:#4A4A4A;stroke-linecap:square;}
	.st3{fill-rule:evenodd;clip-rule:evenodd;fill:#4A4A4A;}
	.st4{fill:#9B9B9B;}
	.st5{fill:#EF95EF;}
	.st6{fill:#F5A623;}
	.st7{fill:#78DE80;}
</style>
<desc>Created with Sketch.</desc>
<g id="function-parameters">
	<path id="function-calculateAr" class="st0" d="M53.9,79.1c0.2,0,0.3,0,0.4,0.1s0.1,0.2,0.1,0.3c0,0.2,0,0.3-0.1,0.3S54,80,53.9,80
		h-4.2c-0.2,0-0.3,0-0.4-0.1s-0.1-0.2-0.1-0.3c0-0.1,0-0.3,0.1-0.3s0.2-0.1,0.4-0.1h1.1v-3.9h-1c-0.2,0-0.3,0-0.4-0.1
		s-0.1-0.2-0.1-0.3c0-0.2,0-0.3,0.1-0.3s0.2-0.1,0.4-0.1h1v-0.4c0-0.8,0.2-1.3,0.7-1.7s1.1-0.5,2.1-0.5c0.5,0,0.8,0.1,1.1,0.2
		s0.3,0.3,0.3,0.5c0,0.1,0,0.2-0.1,0.3s-0.2,0.1-0.4,0.1c-0.1,0-0.3,0-0.5-0.1s-0.5-0.1-0.7-0.1c-0.5,0-0.8,0.1-1,0.3
		s-0.3,0.5-0.3,1v0.4H54c0.2,0,0.3,0,0.4,0.1s0.1,0.2,0.1,0.3c0,0.1,0,0.3-0.1,0.3s-0.2,0.1-0.4,0.1h-2.2v3.9H53.9z M58.1,77.7
		c0,0.5,0.1,0.9,0.3,1.2s0.6,0.4,1.1,0.4c0.5,0,0.9-0.1,1.2-0.4s0.5-0.7,0.5-1.1V75h-0.9c-0.2,0-0.3,0-0.4-0.1s-0.1-0.2-0.1-0.3
		c0-0.2,0-0.3,0.1-0.4s0.2-0.1,0.4-0.1h1.4c0.2,0,0.3,0,0.3,0.1s0.1,0.2,0.1,0.5v4.4h0.3c0.2,0,0.4,0,0.4,0.1s0.1,0.2,0.1,0.3
		c0,0.2,0,0.3-0.1,0.3S62.7,80,62.5,80h-1c-0.1,0-0.2,0-0.3-0.1s-0.1-0.1-0.1-0.2v-0.4c-0.4,0.3-0.8,0.5-1,0.6s-0.6,0.2-0.9,0.2
		c-0.7,0-1.2-0.2-1.6-0.6s-0.5-0.9-0.5-1.7V75H57c-0.3,0-0.5,0-0.6-0.1s-0.2-0.2-0.2-0.4c0-0.1,0-0.3,0.1-0.3s0.2-0.1,0.4-0.1h1
		c0.1,0,0.3,0,0.3,0.1s0.1,0.2,0.1,0.4V77.7z M65.1,79.1V75H65c-0.3,0-0.5,0-0.6-0.1s-0.2-0.2-0.2-0.4c0-0.2,0-0.3,0.1-0.3
		s0.2-0.1,0.4-0.1h0.9c0.1,0,0.2,0,0.3,0.1s0.1,0.1,0.1,0.2v0.4c0.3-0.3,0.6-0.5,0.9-0.6S67.6,74,68,74c0.6,0,1.1,0.2,1.5,0.6
		s0.5,0.9,0.5,1.7v2.9h0.3c0.2,0,0.4,0,0.5,0.1s0.1,0.2,0.1,0.3c0,0.2,0,0.3-0.1,0.4S70.5,80,70.2,80h-1.4c-0.3,0-0.4,0-0.5-0.1
		s-0.1-0.2-0.1-0.4c0-0.2,0-0.3,0.1-0.3s0.3-0.1,0.5-0.1H69v-2.6c0-0.5-0.1-0.9-0.3-1.1s-0.6-0.4-1-0.4c-0.4,0-0.8,0.1-1.1,0.4
		s-0.5,0.7-0.5,1.1v2.6h0.2c0.3,0,0.4,0,0.5,0.1s0.1,0.2,0.1,0.3c0,0.2,0,0.3-0.1,0.4S66.6,80,66.3,80h-1.5c-0.2,0-0.3,0-0.4-0.1
		s-0.1-0.2-0.1-0.3c0-0.2,0-0.3,0.1-0.3s0.3-0.1,0.6-0.1H65.1z M77.2,74.5L77.2,74.5c0-0.2,0-0.3,0.1-0.3s0.2-0.1,0.4-0.1
		c0.2,0,0.3,0.1,0.4,0.2s0.1,0.3,0.1,0.6V76c0,0.2,0,0.3-0.1,0.4s-0.2,0.1-0.4,0.1c-0.1,0-0.2,0-0.3-0.1s-0.2-0.2-0.3-0.4
		c-0.2-0.3-0.4-0.6-0.7-0.8s-0.6-0.3-1-0.3c-0.7,0-1.2,0.2-1.6,0.6s-0.6,0.9-0.6,1.5c0,0.6,0.2,1.1,0.6,1.5s0.9,0.6,1.5,0.6
		c0.3,0,0.6,0,0.8-0.1s0.5-0.2,0.7-0.4c0.1-0.1,0.2-0.1,0.3-0.2c0.3-0.2,0.5-0.3,0.6-0.3c0.1,0,0.2,0,0.3,0.1s0.1,0.2,0.1,0.3
		c0,0.3-0.3,0.7-0.9,1s-1.3,0.5-2,0.5c-0.9,0-1.7-0.3-2.3-0.9S72,78,72,77.1s0.3-1.6,0.9-2.2s1.4-0.9,2.3-0.9c0.3,0,0.6,0,1,0.1
		S76.8,74.3,77.2,74.5z M84.8,74.5c0.2,0,0.4,0,0.5,0.1s0.1,0.2,0.1,0.3c0,0.1,0,0.3-0.1,0.3s-0.2,0.1-0.4,0.1h-2.6v2.1
		c0,0.7,0.1,1.2,0.3,1.4s0.5,0.3,0.9,0.3c0.4,0,0.8-0.1,1.4-0.3s0.9-0.3,1-0.3c0.1,0,0.2,0,0.3,0.1s0.1,0.2,0.1,0.3
		c0,0.1-0.1,0.3-0.2,0.4s-0.3,0.2-0.5,0.3c-0.4,0.2-0.8,0.3-1.1,0.4s-0.6,0.1-0.9,0.1c-0.5,0-0.9-0.1-1.2-0.2s-0.6-0.4-0.8-0.7
		c-0.1-0.1-0.1-0.3-0.2-0.5s-0.1-0.5-0.1-0.9v-2.3h-1.1c-0.2,0-0.3,0-0.4-0.1s-0.1-0.2-0.1-0.3c0-0.2,0.1-0.3,0.2-0.4
		s0.3-0.1,0.7-0.1h0.7v-1.6c0-0.2,0-0.3,0.1-0.4s0.2-0.1,0.4-0.1c0.2,0,0.3,0.1,0.4,0.2s0.1,0.3,0.1,0.7v1.3H84.8z M90.3,72.3
		c0-0.5,0-0.7,0.1-0.9s0.3-0.2,0.5-0.2c0.3,0,0.4,0,0.5,0.1s0.1,0.3,0.1,0.7c0,0.4,0,0.6-0.1,0.7s-0.3,0.1-0.5,0.1
		c-0.3,0-0.4,0-0.5-0.1S90.3,72.6,90.3,72.3z M91.5,79.1h2c0.2,0,0.3,0,0.4,0.1s0.1,0.2,0.1,0.3c0,0.2,0,0.3-0.1,0.4
		S93.7,80,93.5,80h-4.9c-0.2,0-0.3,0-0.4-0.1s-0.1-0.2-0.1-0.3c0-0.1,0-0.3,0.1-0.3s0.2-0.1,0.4-0.1h1.9V75h-1.2
		c-0.2,0-0.3,0-0.4-0.1s-0.1-0.2-0.1-0.3s0-0.3,0.1-0.3s0.2-0.1,0.4-0.1h1.9c0.1,0,0.2,0,0.3,0.1s0.1,0.1,0.1,0.2V79.1z M98.7,79.3
		c0.7,0,1.2-0.2,1.6-0.6s0.6-0.9,0.6-1.6s-0.2-1.2-0.6-1.6s-1-0.6-1.6-0.6s-1.2,0.2-1.6,0.6s-0.6,0.9-0.6,1.6c0,0.6,0.2,1.2,0.6,1.6
		S98.1,79.3,98.7,79.3z M102,77.1c0,0.9-0.3,1.6-0.9,2.2s-1.4,0.9-2.4,0.9c-1,0-1.8-0.3-2.4-0.9s-0.9-1.3-0.9-2.2s0.3-1.6,0.9-2.2
		s1.4-0.9,2.4-0.9s1.8,0.3,2.4,0.9S102,76.2,102,77.1z M104.1,79.1V75H104c-0.3,0-0.5,0-0.6-0.1s-0.2-0.2-0.2-0.4
		c0-0.2,0-0.3,0.1-0.3s0.2-0.1,0.4-0.1h0.9c0.1,0,0.2,0,0.3,0.1s0.1,0.1,0.1,0.2v0.4c0.3-0.3,0.6-0.5,0.9-0.6s0.6-0.2,0.9-0.2
		c0.6,0,1.1,0.2,1.5,0.6s0.5,0.9,0.5,1.7v2.9h0.3c0.2,0,0.4,0,0.5,0.1s0.1,0.2,0.1,0.3c0,0.2,0,0.3-0.1,0.4s-0.3,0.1-0.5,0.1h-1.4
		c-0.3,0-0.4,0-0.5-0.1s-0.1-0.2-0.1-0.4c0-0.2,0-0.3,0.1-0.3s0.3-0.1,0.5-0.1h0.2v-2.6c0-0.5-0.1-0.9-0.3-1.1s-0.6-0.4-1-0.4
		c-0.4,0-0.8,0.1-1.1,0.4s-0.5,0.7-0.5,1.1v2.6h0.2c0.3,0,0.4,0,0.5,0.1s0.1,0.2,0.1,0.3c0,0.2,0,0.3-0.1,0.4s-0.3,0.1-0.6,0.1h-1.5
		c-0.2,0-0.3,0-0.4-0.1s-0.1-0.2-0.1-0.3c0-0.2,0-0.3,0.1-0.3s0.3-0.1,0.6-0.1H104.1z"/>
	<path id="Line-4-Copy" class="st1" d="M325,63v-9"/>
	<path id="Line-4-Copy-2" class="st2" d="M230,63v-9"/>
	<path id="Line-5-Copy" class="st2" d="M325,53h-94"/>
	<path id="Line-6-Copy" class="st2" d="M278,53V42"/>
	<path id="PARAMETERS" class="st3" d="M243.1,35v-7.9h2.6c0.6,0,1.1,0.1,1.6,0.2s0.8,0.4,1,0.8s0.4,0.8,0.4,1.3c0,0.4,0,0.7-0.1,1
		s-0.3,0.6-0.5,0.8s-0.5,0.4-0.9,0.6s-0.9,0.2-1.5,0.2c-0.5,0-0.9,0-1.2,0v3H243.1z M245.6,31c0.3,0,0.6,0,0.8-0.1s0.4-0.1,0.5-0.2
		s0.2-0.2,0.3-0.3s0.1-0.3,0.1-0.4s0-0.3,0-0.4c0-0.4-0.1-0.8-0.4-1s-0.7-0.3-1.2-0.3h-1.2V31C244.6,31,245,31,245.6,31z M248.4,35
		l2.9-7.9h1.6l2.9,7.9h-1.5l-0.8-2.2h-2.8l-0.8,2.2H248.4z M251.1,31.7h2c-0.6-2.1-1-3.1-1-3.2L251.1,31.7z M256.5,35v-7.9h2.9
		c0.4,0,0.7,0,1,0.1s0.6,0.1,0.8,0.2s0.5,0.2,0.6,0.4s0.3,0.4,0.4,0.6s0.1,0.6,0.1,0.9c0,1-0.5,1.7-1.4,2.1c0.2,0.2,0.4,0.6,0.7,1.2
		l1.2,2.4h-1.6l-0.9-2.1c-0.3-0.7-0.6-1.2-0.6-1.3c-0.1,0-0.3,0-0.6,0l-1.2,0V35H256.5z M259.5,30.6c0.6,0,1-0.1,1.2-0.3
		s0.4-0.5,0.4-1c0-0.4-0.1-0.7-0.4-0.9s-0.6-0.3-1.1-0.3h-1.7v2.4c0.1,0,0.3,0,0.8,0S259.5,30.6,259.5,30.6z M263.2,35l2.9-7.9h1.6
		l2.9,7.9H269l-0.8-2.2h-2.8l-0.8,2.2H263.2z M265.8,31.7h2c-0.6-2.1-1-3.1-1-3.2L265.8,31.7z M271.3,35v-7.9h1.7l2.4,5.7l2.4-5.7
		h1.7V35h-1.3v-3.9l0-2.2l-0.2,0.6l-2,5h-1.2l-2-5l-0.2-0.6l0,2.3V35H271.3z M281.2,35v-7.9h4.8l-0.1,1.2h-3.3v2h3.1v1.2h-3.1v2.4
		h3.4l0,1.2H281.2z M288.9,35v-6.7h-2.3v-1.2h6v1.2h-2.3V35H288.9z M293.5,35v-7.9h4.8l-0.1,1.2h-3.3v2h3.1v1.2h-3.1v2.4h3.4l0,1.2
		H293.5z M299.6,35v-7.9h2.9c0.4,0,0.7,0,1,0.1s0.6,0.1,0.8,0.2s0.5,0.2,0.6,0.4s0.3,0.4,0.4,0.6s0.1,0.6,0.1,0.9
		c0,1-0.5,1.7-1.4,2.1c0.2,0.2,0.4,0.6,0.7,1.2L306,35h-1.6l-0.9-2.1c-0.3-0.7-0.6-1.2-0.6-1.3c-0.1,0-0.3,0-0.6,0l-1.2,0V35H299.6z
		 M302.7,30.6c0.6,0,1-0.1,1.2-0.3s0.4-0.5,0.4-1c0-0.4-0.1-0.7-0.4-0.9s-0.6-0.3-1.1-0.3H301v2.4c0.1,0,0.3,0,0.8,0
		S302.6,30.6,302.7,30.6z M309.3,35.1c-0.9,0-1.8-0.2-2.6-0.7l0.4-1.2c0.3,0.2,0.7,0.3,1.1,0.5s0.8,0.2,1.2,0.2c0.5,0,0.8-0.1,1-0.3
		s0.4-0.5,0.4-0.9c0-0.5-0.3-0.8-1-1c0,0-0.2-0.1-0.4-0.1c-0.2-0.1-0.4-0.1-0.6-0.2s-0.3-0.1-0.4-0.1c-1.1-0.4-1.6-1.1-1.6-2.1
		c0-0.7,0.3-1.3,0.8-1.6s1.2-0.6,2-0.6c0.9,0,1.8,0.2,2.5,0.6l-0.4,1.1c-0.7-0.3-1.4-0.5-2-0.5c-0.4,0-0.8,0.1-1,0.2
		s-0.3,0.4-0.4,0.8c0,0.4,0.2,0.7,0.6,0.9c0.1,0,0.3,0.1,0.6,0.2s0.6,0.2,0.7,0.2c0.7,0.2,1.2,0.5,1.5,0.9s0.5,0.8,0.5,1.5
		c0,0.7-0.3,1.3-0.8,1.7S310.2,35.1,309.3,35.1z"/>
	
		<g id="Group-2" transform="translate(189.500000, 119.500000) rotate(-180.000000) translate(-189.500000, -119.500000) translate(171.000000, 109.000000)">
		<path id="Line-4-Copy_1_" class="st2" d="M36,21v-9"/>
		<path id="Line-4-Copy-2_1_" class="st2" d="M1,21v-9"/>
		<path id="Line-5-Copy_1_" class="st2" d="M35.6,11H1"/>
		<path id="Line-6-Copy_1_" class="st2" d="M18,11V0"/>
	</g>
	
		<g id="Group-2-Copy" transform="translate(254.000000, 119.500000) rotate(-180.000000) translate(-254.000000, -119.500000) translate(230.000000, 109.000000)">
		<path id="Line-4-Copy_2_" class="st2" d="M47,21v-9"/>
		<path id="Line-4-Copy-2_2_" class="st2" d="M1,21v-9"/>
		<path id="Line-5-Copy_2_" class="st2" d="M47.6,11H1"/>
		<path id="Line-6-Copy_2_" class="st2" d="M23,11V0"/>
	</g>
	<path id="PARAMETERS-ARE-TREAT" class="st3" d="M139.8,146v-7.9h2.6c0.6,0,1.1,0.1,1.6,0.2s0.8,0.4,1,0.8s0.4,0.8,0.4,1.3
		c0,0.4,0,0.7-0.1,1s-0.3,0.6-0.5,0.8s-0.5,0.4-0.9,0.6s-0.9,0.2-1.5,0.2c-0.5,0-0.9,0-1.2,0v3H139.8z M142.3,142
		c0.3,0,0.6,0,0.8-0.1s0.4-0.1,0.5-0.2s0.2-0.2,0.3-0.3s0.1-0.3,0.1-0.4s0-0.3,0-0.4c0-0.4-0.1-0.8-0.4-1s-0.7-0.3-1.2-0.3h-1.2v2.8
		C141.3,142,141.6,142,142.3,142z M145.1,146l2.9-7.9h1.6l2.9,7.9h-1.5l-0.8-2.2h-2.8l-0.8,2.2H145.1z M147.8,142.7h2
		c-0.6-2.1-1-3.1-1-3.2L147.8,142.7z M153.2,146v-7.9h2.9c0.4,0,0.7,0,1,0.1s0.6,0.1,0.8,0.2s0.5,0.2,0.6,0.4s0.3,0.4,0.4,0.6
		s0.1,0.6,0.1,0.9c0,1-0.5,1.7-1.4,2.1c0.2,0.2,0.4,0.6,0.7,1.2l1.2,2.4H158l-0.9-2.1c-0.3-0.7-0.6-1.2-0.6-1.3c-0.1,0-0.3,0-0.6,0
		l-1.2,0v3.4H153.2z M156.2,141.6c0.6,0,1-0.1,1.2-0.3s0.4-0.5,0.4-1c0-0.4-0.1-0.7-0.4-0.9s-0.6-0.3-1.1-0.3h-1.7v2.4
		c0.1,0,0.3,0,0.8,0C155.9,141.6,156.1,141.6,156.2,141.6z M159.8,146l2.9-7.9h1.6l2.9,7.9h-1.5l-0.8-2.2h-2.8l-0.8,2.2H159.8z
		 M162.5,142.7h2c-0.6-2.1-1-3.1-1-3.2L162.5,142.7z M167.9,146v-7.9h1.7l2.4,5.7l2.4-5.7h1.7v7.9h-1.3v-3.9l0-2.2l-0.2,0.6l-2,5
		h-1.2l-2-5l-0.2-0.6l0,2.3v3.9H167.9z M177.8,146v-7.9h4.8l-0.1,1.2h-3.3v2h3.1v1.2h-3.1v2.4h3.4l0,1.2H177.8z M185.5,146v-6.7
		h-2.3v-1.2h6v1.2H187v6.7H185.5z M190.1,146v-7.9h4.8l-0.1,1.2h-3.3v2h3.1v1.2h-3.1v2.4h3.4l0,1.2H190.1z M196.3,146v-7.9h2.9
		c0.4,0,0.7,0,1,0.1s0.6,0.1,0.8,0.2s0.5,0.2,0.6,0.4s0.3,0.4,0.4,0.6s0.1,0.6,0.1,0.9c0,1-0.5,1.7-1.4,2.1c0.2,0.2,0.4,0.6,0.7,1.2
		l1.2,2.4h-1.6l-0.9-2.1c-0.3-0.7-0.6-1.2-0.6-1.3c-0.1,0-0.3,0-0.6,0l-1.2,0v3.4H196.3z M199.3,141.6c0.6,0,1-0.1,1.2-0.3
		s0.4-0.5,0.4-1c0-0.4-0.1-0.7-0.4-0.9s-0.6-0.3-1.1-0.3h-1.7v2.4c0.1,0,0.3,0,0.8,0S199.3,141.6,199.3,141.6z M206,146.1
		c-0.9,0-1.8-0.2-2.6-0.7l0.4-1.2c0.3,0.2,0.7,0.3,1.1,0.5s0.8,0.2,1.2,0.2c0.5,0,0.8-0.1,1-0.3s0.4-0.5,0.4-0.9c0-0.5-0.3-0.8-1-1
		c0,0-0.2-0.1-0.4-0.1s-0.4-0.1-0.6-0.2s-0.3-0.1-0.4-0.1c-1.1-0.4-1.6-1.1-1.6-2.1c0-0.7,0.3-1.3,0.8-1.6s1.2-0.6,2-0.6
		c0.9,0,1.8,0.2,2.5,0.6l-0.4,1.1c-0.7-0.3-1.4-0.5-2-0.5c-0.4,0-0.8,0.1-1,0.2s-0.3,0.4-0.4,0.8c0,0.4,0.2,0.7,0.6,0.9
		c0.1,0,0.3,0.1,0.6,0.2s0.6,0.2,0.7,0.2c0.7,0.2,1.2,0.5,1.5,0.9s0.5,0.8,0.5,1.5c0,0.7-0.3,1.3-0.8,1.7S206.9,146.1,206,146.1z
		 M212.2,146l2.9-7.9h1.6l2.9,7.9h-1.5l-0.8-2.2h-2.8l-0.8,2.2H212.2z M214.9,142.7h2c-0.6-2.1-1-3.1-1-3.2L214.9,142.7z M220.3,146
		v-7.9h2.9c0.4,0,0.7,0,1,0.1s0.6,0.1,0.8,0.2s0.5,0.2,0.6,0.4s0.3,0.4,0.4,0.6s0.1,0.6,0.1,0.9c0,1-0.5,1.7-1.4,2.1
		c0.2,0.2,0.4,0.6,0.7,1.2l1.2,2.4h-1.6l-0.9-2.1c-0.3-0.7-0.6-1.2-0.6-1.3c-0.1,0-0.3,0-0.6,0l-1.2,0v3.4H220.3z M223.3,141.6
		c0.6,0,1-0.1,1.2-0.3s0.4-0.5,0.4-1c0-0.4-0.1-0.7-0.4-0.9s-0.6-0.3-1.1-0.3h-1.7v2.4c0.1,0,0.3,0,0.8,0
		C223,141.6,223.3,141.6,223.3,141.6z M227.8,146v-7.9h4.8l-0.1,1.2h-3.3v2h3.1v1.2h-3.1v2.4h3.4l0,1.2H227.8z M238.4,146v-6.7h-2.3
		v-1.2h6v1.2h-2.3v6.7H238.4z M242.9,146v-7.9h2.9c0.4,0,0.7,0,1,0.1s0.6,0.1,0.8,0.2s0.5,0.2,0.6,0.4s0.3,0.4,0.4,0.6
		s0.1,0.6,0.1,0.9c0,1-0.5,1.7-1.4,2.1c0.2,0.2,0.4,0.6,0.7,1.2l1.2,2.4h-1.6l-0.9-2.1c-0.3-0.7-0.6-1.2-0.6-1.3c-0.1,0-0.3,0-0.6,0
		l-1.2,0v3.4H242.9z M246,141.6c0.6,0,1-0.1,1.2-0.3s0.4-0.5,0.4-1c0-0.4-0.1-0.7-0.4-0.9s-0.6-0.3-1.1-0.3h-1.7v2.4
		c0.1,0,0.3,0,0.8,0C245.7,141.6,245.9,141.6,246,141.6z M250.4,146v-7.9h4.8l-0.1,1.2h-3.3v2h3.1v1.2h-3.1v2.4h3.4l0,1.2H250.4z
		 M255.7,146l2.9-7.9h1.6l2.9,7.9h-1.5l-0.8-2.2H258l-0.8,2.2H255.7z M258.4,142.7h2c-0.6-2.1-1-3.1-1-3.2L258.4,142.7z M264.9,146
		v-6.7h-2.3v-1.2h6v1.2h-2.3v6.7H264.9z M269.5,146v-7.9h4.8l-0.1,1.2H271v2h3.1v1.2H271v2.4h3.4l0,1.2H269.5z M277.2,144.8h1
		c0.9,0,1.6-0.2,2.1-0.7s0.7-1.2,0.7-2.1c0-1-0.2-1.7-0.7-2.1s-1.2-0.7-2.2-0.7h-0.9V144.8z M275.7,146v-7.9h2.3
		c0.7,0,1.3,0.1,1.8,0.2s1,0.4,1.4,0.7s0.7,0.7,0.9,1.2s0.3,1.1,0.3,1.7c0,1.3-0.4,2.2-1.1,2.9s-1.8,1-3.2,1H275.7z M286.8,146v-7.9
		h1.5v6.7h3.3l0,1.2H286.8z M292.5,146v-7.9h1.5v7.9H292.5z M295.7,146v-7.9h1.5v3.5c0.3-0.3,0.8-1,1.6-1.9s1.3-1.5,1.4-1.7h1.7
		l-3,3.5l3.2,4.3h-1.7l-2.6-3.5l-0.6,0.5v3H295.7z M302.7,146v-7.9h4.8l-0.1,1.2h-3.3v2h3.1v1.2h-3.1v2.4h3.4l0,1.2H302.7z
		 M141.8,160l-2.9-7.9h1.5l1.7,4.9c0.1,0.2,0.2,0.7,0.4,1.5c0-0.1,0.1-0.3,0.2-0.7s0.2-0.7,0.2-0.8c0-0.1,0.3-0.9,0.8-2.4
		s0.8-2.3,0.8-2.4h1.5l-2.8,7.9H141.8z M145.5,160l2.9-7.9h1.6l2.9,7.9h-1.5l-0.8-2.2h-2.8L147,160H145.5z M148.2,156.7h2
		c-0.6-2.1-1-3.1-1-3.2L148.2,156.7z M153.6,160v-7.9h2.9c0.4,0,0.7,0,1,0.1s0.6,0.1,0.8,0.2s0.5,0.2,0.6,0.4s0.3,0.4,0.4,0.6
		s0.1,0.6,0.1,0.9c0,1-0.5,1.7-1.4,2.1c0.2,0.2,0.4,0.6,0.7,1.2l1.2,2.4h-1.6l-0.9-2.1c-0.3-0.7-0.6-1.2-0.6-1.3c-0.1,0-0.3,0-0.6,0
		l-1.2,0v3.4H153.6z M156.6,155.6c0.6,0,1-0.1,1.2-0.3s0.4-0.5,0.4-1c0-0.4-0.1-0.7-0.4-0.9s-0.6-0.3-1.1-0.3H155v2.4
		c0.1,0,0.3,0,0.8,0S156.5,155.6,156.6,155.6z M161.1,160v-7.9h1.5v7.9H161.1z M163.5,160l2.9-7.9h1.6l2.9,7.9h-1.5l-0.8-2.2h-2.8
		L165,160H163.5z M166.1,156.7h2c-0.6-2.1-1-3.1-1-3.2L166.1,156.7z M171.6,160v-7.9h2.5c1,0,1.8,0.2,2.3,0.5s0.8,0.8,0.8,1.5
		c0,0.1,0,0.2,0,0.3s0,0.2-0.1,0.4s-0.1,0.3-0.2,0.4s-0.2,0.2-0.3,0.3s-0.3,0.2-0.5,0.3c0.5,0.1,0.9,0.3,1.1,0.7s0.4,0.7,0.4,1.2
		c0,0.7-0.3,1.3-0.8,1.7s-1.3,0.6-2.2,0.6H171.6z M173.1,158.9h1.3c1.1,0,1.7-0.4,1.7-1.3c0-0.4-0.1-0.8-0.4-1s-0.7-0.3-1.3-0.3
		h-1.2V158.9z M173.1,155.4h1.2c1,0,1.4-0.4,1.4-1.1c0-0.4-0.1-0.7-0.4-0.8s-0.7-0.2-1.3-0.2h-1V155.4z M178.8,160v-7.9h1.5v6.7h3.3
		l0,1.2H178.8z M184.5,160v-7.9h4.8l-0.1,1.2H186v2h3.1v1.2H186v2.4h3.4l0,1.2H184.5z M192.9,160.1c-0.9,0-1.8-0.2-2.6-0.7l0.4-1.2
		c0.3,0.2,0.7,0.3,1.1,0.5s0.8,0.2,1.2,0.2c0.5,0,0.8-0.1,1-0.3s0.4-0.5,0.4-0.9c0-0.5-0.3-0.8-1-1c0,0-0.2-0.1-0.4-0.1
		s-0.4-0.1-0.6-0.2s-0.3-0.1-0.4-0.1c-1.1-0.4-1.6-1.1-1.6-2.1c0-0.7,0.3-1.3,0.8-1.6s1.2-0.6,2-0.6c0.9,0,1.8,0.2,2.5,0.6l-0.4,1.1
		c-0.7-0.3-1.4-0.5-2-0.5c-0.4,0-0.8,0.1-1,0.2s-0.3,0.4-0.4,0.8c0,0.4,0.2,0.7,0.6,0.9c0.1,0,0.3,0.1,0.6,0.2s0.6,0.2,0.7,0.2
		c0.7,0.2,1.2,0.5,1.5,0.9s0.5,0.8,0.5,1.5c0,0.7-0.3,1.3-0.8,1.7S193.8,160.1,192.9,160.1z M201.4,160l-2.1-7.9h1.5l1.5,6.1
		l1.8-6.1h1.4l1.7,6.1l1.6-6.1h1.5l-2.2,7.9h-1.5l-1.7-5.8l-1.8,5.8H201.4z M211.1,160v-7.9h1.5v7.9H211.1z M215.8,160v-6.7h-2.3
		v-1.2h6v1.2h-2.3v6.7H215.8z M220.4,160v-7.9h1.5v3.2h3.6v-3.2h1.5v7.9h-1.5v-3.5h-3.6v3.5H220.4z M228.6,160v-7.9h1.5v7.9H228.6z
		 M231.8,160v-7.9h1.5c0.3,0.4,0.8,1.3,1.7,2.6s1.4,2.1,1.6,2.4c0.1,0.1,0.1,0.2,0.3,0.4s0.2,0.3,0.3,0.4c0-1.2,0-1.9,0-1.9v-4h1.3
		v7.9h-1.6l-3.6-5.5L233,154c0,0.9,0,1.6,0,2v4H231.8z M242.2,160l2.9-7.9h1.6l2.9,7.9H248l-0.8-2.2h-2.8l-0.8,2.2H242.2z
		 M244.8,156.7h2c-0.6-2.1-1-3.1-1-3.2L244.8,156.7z M253.2,160v-7.9h4.7l-0.1,1.2h-3.2v2.2h3v1.1h-3v3.3H253.2z M262.2,160.1
		c-1,0-1.8-0.3-2.3-0.8s-0.8-1.2-0.8-2.2v-5h1.5v4.9c0,0.7,0.1,1.1,0.4,1.4s0.7,0.5,1.3,0.5c0.6,0,1-0.2,1.3-0.5s0.4-0.8,0.4-1.4
		v-4.9h1.5v5c0,0.9-0.3,1.6-0.8,2.2S263.3,160.1,262.2,160.1z M267,160v-7.9h1.5c0.3,0.4,0.8,1.3,1.7,2.6s1.4,2.1,1.6,2.4
		c0.1,0.1,0.1,0.2,0.3,0.4s0.2,0.3,0.3,0.4c0-1.2,0-1.9,0-1.9v-4h1.3v7.9h-1.6l-3.6-5.5l-0.3-0.4c0,0.9,0,1.6,0,2v4H267z
		 M278.8,160.1c-1.1,0-2.1-0.4-2.7-1.1s-1-1.7-1-3c0-1.2,0.4-2.2,1.1-2.9s1.6-1.1,2.8-1.1c0.9,0,1.7,0.2,2.3,0.6l-0.5,1.1
		c-0.6-0.4-1.2-0.6-1.8-0.6c-0.7,0-1.3,0.3-1.7,0.8s-0.6,1.2-0.6,2.1c0,0.9,0.2,1.6,0.6,2.1s1,0.7,1.7,0.7c0.7,0,1.3-0.2,2-0.5
		l0.2,1.1C280.5,159.9,279.7,160.1,278.8,160.1z M283.9,160v-6.7h-2.3v-1.2h6v1.2h-2.3v6.7H283.9z M288.6,160v-7.9h1.5v7.9H288.6z
		 M295.3,158.9c0.8,0,1.3-0.2,1.7-0.7c0.4-0.5,0.6-1.2,0.6-2.1c0-0.9-0.2-1.6-0.6-2.1s-1-0.8-1.7-0.8c-0.8,0-1.3,0.3-1.7,0.8
		s-0.6,1.2-0.6,2.1c0,0.9,0.2,1.6,0.6,2.1S294.6,158.9,295.3,158.9z M295.3,160.1c-1.2,0-2.1-0.4-2.8-1.1s-1-1.7-1-3
		c0-1.3,0.3-2.3,1-3s1.6-1.1,2.8-1.1s2.1,0.4,2.8,1.1s1,1.7,1,3c0,1.3-0.3,2.2-1,3S296.5,160.1,295.3,160.1z M300.5,160v-7.9h1.5
		c0.3,0.4,0.8,1.3,1.7,2.6s1.4,2.1,1.6,2.4c0.1,0.1,0.1,0.2,0.3,0.4s0.2,0.3,0.3,0.4c0-1.2,0-1.9,0-1.9v-4h1.3v7.9h-1.6l-3.6-5.5
		l-0.3-0.4c0,0.9,0,1.6,0,2v4H300.5z"/>
	<path id="Path" class="st4" d="M224.8,72.5c0,0.1-0.1,0.3-0.2,0.6s-0.2,0.5-0.3,0.7c-0.3,0.7-0.5,1.3-0.6,1.8s-0.2,1.1-0.2,1.7
		c0,0.6,0.1,1.1,0.2,1.6s0.3,1,0.5,1.6c0.1,0.3,0.3,0.6,0.4,1s0.3,0.6,0.3,0.7c0,0.1,0,0.2-0.1,0.2s-0.1,0.1-0.2,0.1
		c-0.1,0-0.3-0.1-0.4-0.2s-0.3-0.4-0.6-0.7c-0.5-0.6-0.8-1.3-1-2s-0.3-1.5-0.3-2.2c0-0.7,0.1-1.4,0.3-2s0.5-1.3,0.8-1.9
		c0.2-0.4,0.5-0.7,0.7-0.9s0.4-0.3,0.6-0.3c0.1,0,0.1,0,0.2,0.1S224.8,72.5,224.8,72.5z"/>
	<path id="Path_1_" class="st4" d="M269.6,78.2c0-0.1,0.1-0.2,0.1-0.3s0.1-0.1,0.3-0.1h1.4c0.1,0,0.1,0,0.2,0s0.1,0.1,0.1,0.1
		c0,0,0,0,0,0.1s0,0.1,0,0.1l-1.7,3.6c0,0.1-0.1,0.1-0.1,0.2s-0.1,0.1-0.2,0.1c0,0,0,0,0,0s0,0-0.1,0l-0.4-0.2
		c-0.1,0-0.1-0.1-0.2-0.1s-0.1-0.1-0.1-0.1v-0.1c0,0,0,0,0-0.1L269.6,78.2z"/>
	<path id="Path_2_" class="st4" d="M331.4,82.2c0-0.1,0.1-0.3,0.2-0.6s0.3-0.5,0.3-0.7c0.3-0.7,0.5-1.3,0.6-1.9s0.2-1.1,0.2-1.7
		c0-0.5-0.1-1.1-0.2-1.6s-0.3-1-0.5-1.6c-0.1-0.3-0.3-0.6-0.4-1s-0.3-0.6-0.3-0.7c0-0.1,0-0.2,0.1-0.2s0.1-0.1,0.2-0.1
		c0.1,0,0.3,0.1,0.4,0.2s0.3,0.4,0.6,0.7c0.5,0.6,0.8,1.3,1,2s0.3,1.5,0.3,2.2c0,0.7-0.1,1.4-0.3,2.1s-0.5,1.3-0.8,1.9
		c-0.3,0.4-0.5,0.7-0.7,0.9s-0.4,0.3-0.5,0.3c-0.1,0-0.1,0-0.2-0.1S331.4,82.3,331.4,82.2z"/>
	<path id="Path_3_" class="st4" d="M347.9,77.1c0.4,0.1,0.7,0.3,0.9,0.6s0.3,0.8,0.3,1.5v0.9c0,0.4,0,0.7,0.1,0.9s0.3,0.3,0.5,0.3
		c0.1,0,0.1,0,0.2,0c0.4,0.1,0.6,0.2,0.6,0.5c0,0.1,0,0.3-0.1,0.3s-0.2,0.1-0.4,0.1c-0.7,0-1.2-0.2-1.5-0.5s-0.4-1-0.4-2v-0.7
		c0-0.5-0.1-0.8-0.2-1.1s-0.5-0.4-1-0.4c-0.2,0-0.3-0.1-0.4-0.2s-0.1-0.2-0.1-0.4c0-0.1,0-0.2,0.1-0.3s0.2-0.1,0.3-0.2
		c0.1,0,0.2,0,0.3-0.1c0.7-0.1,1.1-0.6,1.1-1.5v-0.8c0-1,0.1-1.6,0.4-2s0.8-0.5,1.5-0.5c0.2,0,0.3,0,0.4,0.1s0.1,0.2,0.1,0.3
		c0,0.3-0.2,0.5-0.6,0.5c-0.1,0-0.1,0-0.2,0c-0.3,0.1-0.5,0.2-0.6,0.3S349,73.6,349,74v0.9c0,0.7-0.1,1.2-0.3,1.5
		S348.3,77,347.9,77.1z"/>
	<path id="Path_4_" class="st4" d="M133.3,96c0-0.3,0.1-0.6,0.3-0.8s0.5-0.3,0.9-0.3c0.4,0,0.7,0.1,0.9,0.3s0.3,0.5,0.3,0.8
		s-0.1,0.6-0.3,0.8s-0.5,0.3-0.9,0.3s-0.7-0.1-0.9-0.3S133.3,96.3,133.3,96z"/>
	<path id="Path_5_" class="st4" d="M167,89.5c0,0.1-0.1,0.3-0.2,0.6s-0.2,0.5-0.3,0.7c-0.3,0.7-0.5,1.3-0.6,1.8s-0.2,1.1-0.2,1.7
		c0,0.6,0.1,1.1,0.2,1.6s0.3,1,0.5,1.6c0.1,0.3,0.3,0.6,0.4,1s0.3,0.6,0.3,0.7c0,0.1,0,0.2-0.1,0.2s-0.1,0.1-0.2,0.1
		c-0.1,0-0.3-0.1-0.4-0.2s-0.3-0.4-0.6-0.7c-0.5-0.6-0.8-1.3-1-2s-0.3-1.5-0.3-2.2c0-0.7,0.1-1.4,0.3-2s0.5-1.3,0.8-1.9
		c0.2-0.4,0.5-0.7,0.7-0.9s0.4-0.3,0.6-0.3c0.1,0,0.1,0,0.2,0.1S167,89.5,167,89.5z"/>
	<path id="Path_6_" class="st4" d="M220.7,91.6l1.7-0.7l0.1,0c0,0,0.1,0,0.1,0c0,0,0.1,0,0.1,0s0,0.1,0.1,0.2l0.2,0.5
		c0,0.1,0,0.1,0,0.1s0,0.1,0,0.1c0,0,0,0.1-0.1,0.1s-0.1,0-0.1,0.1l-1.8,0.4l1.2,1.4c0,0,0.1,0.1,0.1,0.1s0,0.1,0,0.1c0,0,0,0,0,0.1
		s-0.1,0.1-0.1,0.1l-0.4,0.3c-0.1,0-0.1,0.1-0.1,0.1s-0.1,0-0.1,0c0,0-0.1,0-0.1,0s-0.1-0.1-0.1-0.1l-0.9-1.6l-0.9,1.6
		c0,0-0.1,0.1-0.1,0.1s-0.1,0-0.1,0c0,0,0,0-0.1,0s-0.1,0-0.1-0.1l-0.4-0.3c-0.1,0-0.1-0.1-0.1-0.1s0-0.1,0-0.1c0,0,0,0,0-0.1
		s0-0.1,0.1-0.1l1.2-1.4l-1.8-0.4c-0.1,0-0.1,0-0.2-0.1s-0.1-0.1-0.1-0.1c0,0,0,0,0-0.1s0-0.1,0-0.1L218,91c0-0.1,0.1-0.1,0.1-0.2
		s0.1,0,0.1,0s0.1,0,0.1,0s0,0,0.1,0l1.7,0.7l-0.2-1.8v-0.1c0-0.1,0-0.1,0.1-0.1s0.1,0,0.2,0h0.5c0.1,0,0.2,0,0.2,0s0.1,0.1,0.1,0.1
		v0.1L220.7,91.6z"/>
	<path id="Path_7_" class="st4" d="M281.4,99.2c0-0.1,0.1-0.3,0.2-0.6s0.3-0.5,0.3-0.7c0.3-0.7,0.5-1.3,0.6-1.9s0.2-1.1,0.2-1.7
		c0-0.5-0.1-1.1-0.2-1.6s-0.3-1-0.5-1.6c-0.1-0.3-0.3-0.6-0.4-1s-0.3-0.6-0.3-0.7c0-0.1,0-0.2,0.1-0.2s0.1-0.1,0.2-0.1
		c0.1,0,0.3,0.1,0.4,0.2s0.3,0.4,0.6,0.7c0.5,0.6,0.8,1.3,1,2s0.3,1.5,0.3,2.2c0,0.7-0.1,1.4-0.3,2.1s-0.5,1.3-0.8,1.9
		c-0.3,0.4-0.5,0.7-0.7,0.9s-0.4,0.3-0.5,0.3c-0.1,0-0.1,0-0.2-0.1S281.4,99.3,281.4,99.2z"/>
	<path id="Path_8_" class="st4" d="M289.7,95.5c0-0.1,0.1-0.2,0.1-0.3s0.1-0.1,0.3-0.1h1.3c0.1,0,0.1,0,0.1,0s0.1,0.1,0.1,0.1
		c0,0,0,0,0,0.1s0,0.1,0,0.1l-1.6,3.4c0,0.1-0.1,0.1-0.1,0.1s-0.1,0-0.1,0c0,0-0.1,0-0.1,0s0,0,0,0l-0.4-0.2c-0.1,0-0.1-0.1-0.1-0.1
		s0-0.1,0-0.1c0,0,0,0,0-0.1s0-0.1,0-0.1L289.7,95.5z"/>
	<path id="Path_9_" class="st4" d="M289.2,92.4c0-0.3,0.1-0.6,0.3-0.8s0.5-0.3,0.9-0.3c0.4,0,0.7,0.1,0.9,0.3s0.3,0.5,0.3,0.8
		s-0.1,0.6-0.3,0.8s-0.5,0.3-0.9,0.3c-0.4,0-0.7-0.1-0.9-0.3S289.2,92.8,289.2,92.4z"/>
	<path id="Path_10_" class="st4" d="M52.4,111.1c-0.4-0.1-0.7-0.3-0.9-0.6s-0.3-0.8-0.3-1.5V108c0-0.4,0-0.8-0.1-0.9
		s-0.3-0.3-0.5-0.3c-0.1,0-0.1,0-0.2,0c-0.4-0.1-0.5-0.2-0.5-0.5c0-0.2,0-0.3,0.1-0.4s0.2-0.1,0.4-0.1c0.7,0,1.2,0.2,1.5,0.5
		s0.4,1,0.4,2v0.8c0,0.8,0.3,1.3,1,1.5c0.1,0,0.2,0,0.3,0.1c0.1,0,0.2,0.1,0.3,0.2s0.1,0.2,0.1,0.3c0,0.1,0,0.3-0.1,0.3
		s-0.2,0.1-0.3,0.2c0,0-0.1,0-0.2,0c-0.7,0.1-1.1,0.6-1.1,1.5v0.7c0,1-0.1,1.7-0.4,2s-0.8,0.5-1.5,0.5c-0.2,0-0.3,0-0.4-0.1
		s-0.1-0.2-0.1-0.4c0-0.3,0.2-0.4,0.5-0.5c0.1,0,0.1,0,0.2,0c0.3,0,0.5-0.1,0.6-0.3s0.2-0.5,0.2-0.9v-0.9c0-0.7,0.1-1.2,0.3-1.5
		S52,111.2,52.4,111.1z"/>
	<path id="Path_11_" class="st5" d="M124,74.5L124,74.5c0-0.2,0-0.3,0.1-0.3s0.2-0.1,0.4-0.1c0.2,0,0.3,0.1,0.4,0.2s0.1,0.3,0.1,0.6
		V76c0,0.2,0,0.3-0.1,0.4s-0.2,0.1-0.4,0.1c-0.1,0-0.2,0-0.3-0.1s-0.2-0.2-0.3-0.4c-0.2-0.3-0.4-0.6-0.7-0.8s-0.6-0.3-1-0.3
		c-0.7,0-1.2,0.2-1.6,0.6s-0.6,0.9-0.6,1.5c0,0.6,0.2,1.1,0.6,1.5s0.9,0.6,1.5,0.6c0.3,0,0.6,0,0.8-0.1c0.3-0.1,0.5-0.2,0.7-0.4
		c0.1-0.1,0.2-0.1,0.3-0.2c0.3-0.2,0.5-0.3,0.6-0.3c0.1,0,0.2,0,0.3,0.1s0.1,0.2,0.1,0.3c0,0.3-0.3,0.7-0.9,1s-1.3,0.5-2,0.5
		c-0.9,0-1.7-0.3-2.3-0.9s-0.9-1.3-0.9-2.2s0.3-1.6,0.9-2.2s1.4-0.9,2.3-0.9c0.3,0,0.6,0,1,0.1S123.7,74.3,124,74.5z"/>
	<path id="Combined-Shape" class="st5" d="M131.4,79.2c-0.3,0.3-0.7,0.6-1.1,0.7s-0.8,0.2-1.3,0.2c-0.6,0-1.1-0.2-1.5-0.5
		s-0.6-0.8-0.6-1.4c0-0.7,0.3-1.2,0.8-1.6s1.2-0.6,2.2-0.6c0.2,0,0.5,0,0.7,0s0.5,0.1,0.8,0.1v0c0-0.5-0.1-0.8-0.3-1.1
		s-0.6-0.3-1.1-0.3c-0.3,0-0.7,0.1-1.1,0.3s-0.7,0.3-0.8,0.3c-0.1,0-0.2,0-0.3-0.1s-0.1-0.2-0.1-0.4c0-0.2,0.2-0.5,0.7-0.6
		c0.5-0.2,1.1-0.3,1.8-0.3c0.7,0,1.3,0.2,1.7,0.6s0.6,0.9,0.6,1.7v2.9h0.3c0.3,0,0.5,0,0.6,0.1s0.2,0.2,0.2,0.3c0,0.2,0,0.3-0.1,0.3
		S133,80,132.9,80h-1c-0.1,0-0.2,0-0.3-0.1s-0.1-0.2-0.2-0.3L131.4,79.2z M131.3,77.2c-0.2-0.1-0.5-0.1-0.7-0.2S130.2,77,130,77
		c-0.7,0-1.2,0.1-1.5,0.3s-0.6,0.5-0.6,0.9c0,0.3,0.1,0.5,0.4,0.7s0.5,0.3,0.9,0.3c0.5,0,1-0.1,1.5-0.4s0.7-0.6,0.7-0.9V77.2z"/>
	<path id="Path_12_" class="st5" d="M137.3,72.6h-1.1c-0.4,0-0.7,0-0.8-0.1s-0.2-0.2-0.2-0.4c0-0.2,0-0.3,0.1-0.3s0.2-0.1,0.4-0.1
		h2.1c0.1,0,0.2,0,0.3,0.1s0.1,0.1,0.1,0.2v7.2h2c0.2,0,0.3,0,0.4,0.1s0.1,0.2,0.1,0.3c0,0.2,0,0.3-0.1,0.4s-0.2,0.1-0.4,0.1h-4.7
		c-0.2,0-0.3,0-0.4-0.1s-0.1-0.2-0.1-0.3c0-0.1,0-0.3,0.1-0.3s0.2-0.1,0.4-0.1h1.8V72.6z"/>
	<path id="Path_13_" class="st5" d="M147.4,74.5L147.4,74.5c0-0.2,0-0.3,0.1-0.3s0.2-0.1,0.4-0.1c0.2,0,0.3,0.1,0.4,0.2
		s0.1,0.3,0.1,0.6V76c0,0.2,0,0.3-0.1,0.4s-0.2,0.1-0.4,0.1c-0.1,0-0.2,0-0.3-0.1s-0.2-0.2-0.3-0.4c-0.2-0.3-0.4-0.6-0.7-0.8
		s-0.6-0.3-1-0.3c-0.7,0-1.2,0.2-1.6,0.6s-0.6,0.9-0.6,1.5c0,0.6,0.2,1.1,0.6,1.5s0.9,0.6,1.5,0.6c0.3,0,0.6,0,0.8-0.1
		s0.5-0.2,0.7-0.4c0.1-0.1,0.2-0.1,0.3-0.2c0.3-0.2,0.5-0.3,0.6-0.3c0.1,0,0.2,0,0.3,0.1s0.1,0.2,0.1,0.3c0,0.3-0.3,0.7-0.9,1
		s-1.3,0.5-2,0.5c-0.9,0-1.7-0.3-2.3-0.9s-0.9-1.3-0.9-2.2s0.3-1.6,0.9-2.2s1.4-0.9,2.3-0.9c0.3,0,0.6,0,1,0.1
		S147.1,74.3,147.4,74.5z"/>
	<path id="Path_14_" class="st5" d="M151.7,77.7c0,0.5,0.1,0.9,0.3,1.2s0.6,0.4,1.1,0.4c0.5,0,0.9-0.1,1.2-0.4s0.5-0.7,0.5-1.1V75
		h-0.9c-0.2,0-0.3,0-0.4-0.1s-0.1-0.2-0.1-0.3c0-0.2,0-0.3,0.1-0.4s0.2-0.1,0.4-0.1h1.4c0.2,0,0.3,0,0.3,0.1s0.1,0.2,0.1,0.5v4.4
		h0.3c0.2,0,0.4,0,0.4,0.1s0.1,0.2,0.1,0.3c0,0.2,0,0.3-0.1,0.3s-0.2,0.1-0.4,0.1h-1c-0.1,0-0.2,0-0.3-0.1s-0.1-0.1-0.1-0.2v-0.4
		c-0.4,0.3-0.8,0.5-1,0.6s-0.6,0.2-0.9,0.2c-0.7,0-1.2-0.2-1.6-0.6s-0.5-0.9-0.5-1.7V75h-0.1c-0.3,0-0.5,0-0.6-0.1s-0.2-0.2-0.2-0.4
		c0-0.1,0-0.3,0.1-0.3s0.2-0.1,0.4-0.1h1c0.1,0,0.3,0,0.3,0.1s0.1,0.2,0.1,0.4V77.7z"/>
	<path id="Path_15_" class="st5" d="M160.7,72.6h-1.1c-0.4,0-0.7,0-0.8-0.1s-0.2-0.2-0.2-0.4c0-0.2,0-0.3,0.1-0.3s0.2-0.1,0.4-0.1
		h2.1c0.1,0,0.2,0,0.3,0.1s0.1,0.1,0.1,0.2v7.2h2c0.2,0,0.3,0,0.4,0.1s0.1,0.2,0.1,0.3c0,0.2,0,0.3-0.1,0.4s-0.2,0.1-0.4,0.1h-4.7
		c-0.2,0-0.3,0-0.4-0.1s-0.1-0.2-0.1-0.3c0-0.1,0-0.3,0.1-0.3s0.2-0.1,0.4-0.1h1.8V72.6z"/>
	<path id="Combined-Shape_1_" class="st5" d="M170.4,79.2c-0.3,0.3-0.7,0.6-1.1,0.7s-0.8,0.2-1.3,0.2c-0.6,0-1.1-0.2-1.5-0.5
		s-0.6-0.8-0.6-1.4c0-0.7,0.3-1.2,0.8-1.6s1.2-0.6,2.2-0.6c0.2,0,0.5,0,0.7,0s0.5,0.1,0.8,0.1v0c0-0.5-0.1-0.8-0.3-1.1
		s-0.6-0.3-1.1-0.3c-0.3,0-0.7,0.1-1.1,0.3s-0.7,0.3-0.8,0.3c-0.1,0-0.2,0-0.3-0.1s-0.1-0.2-0.1-0.4c0-0.2,0.2-0.5,0.7-0.6
		s1.1-0.3,1.8-0.3c0.7,0,1.3,0.2,1.7,0.6s0.6,0.9,0.6,1.7v2.9h0.3c0.3,0,0.5,0,0.6,0.1s0.2,0.2,0.2,0.3c0,0.2,0,0.3-0.1,0.3
		S172,80,171.9,80h-1c-0.1,0-0.2,0-0.3-0.1s-0.1-0.2-0.2-0.3L170.4,79.2z M170.3,77.2c-0.2-0.1-0.5-0.1-0.7-0.2S169.2,77,169,77
		c-0.7,0-1.2,0.1-1.5,0.3s-0.6,0.5-0.6,0.9c0,0.3,0.1,0.5,0.4,0.7s0.5,0.3,0.9,0.3c0.5,0,1-0.1,1.5-0.4s0.7-0.6,0.7-0.9V77.2z"/>
	<path id="Path_16_" class="st5" d="M178.5,74.5c0.2,0,0.4,0,0.5,0.1s0.1,0.2,0.1,0.3c0,0.1,0,0.3-0.1,0.3s-0.2,0.1-0.4,0.1h-2.6
		v2.1c0,0.7,0.1,1.2,0.3,1.4s0.5,0.3,0.9,0.3c0.4,0,0.8-0.1,1.4-0.3c0.5-0.2,0.9-0.3,1-0.3c0.1,0,0.2,0,0.3,0.1s0.1,0.2,0.1,0.3
		c0,0.1-0.1,0.3-0.2,0.4s-0.3,0.2-0.5,0.3c-0.4,0.2-0.8,0.3-1.1,0.4s-0.6,0.1-0.9,0.1c-0.5,0-0.9-0.1-1.2-0.2s-0.6-0.4-0.8-0.7
		c-0.1-0.1-0.1-0.3-0.2-0.5s-0.1-0.5-0.1-0.9v-2.3h-1.1c-0.2,0-0.3,0-0.4-0.1s-0.1-0.2-0.1-0.3c0-0.2,0.1-0.3,0.2-0.4
		s0.3-0.1,0.7-0.1h0.7v-1.6c0-0.2,0-0.3,0.1-0.4s0.2-0.1,0.4-0.1c0.2,0,0.3,0.1,0.4,0.2s0.1,0.3,0.1,0.7v1.3H178.5z"/>
	<path id="Combined-Shape_2_" class="st5" d="M182.4,77.3c0,0.6,0.2,1.1,0.6,1.4s0.9,0.5,1.6,0.5c0.5,0,1-0.1,1.6-0.4
		s0.9-0.4,1.1-0.4c0.1,0,0.2,0,0.3,0.1s0.1,0.2,0.1,0.3c0,0.1,0,0.2-0.1,0.3s-0.2,0.2-0.4,0.3c-0.4,0.2-0.9,0.4-1.3,0.5
		s-0.9,0.2-1.3,0.2c-1,0-1.7-0.3-2.3-0.8s-0.9-1.3-0.9-2.2c0-0.9,0.3-1.7,0.9-2.3s1.4-0.9,2.4-0.9c0.9,0,1.6,0.3,2.2,0.8
		s0.9,1.2,0.9,2c0,0.2,0,0.4-0.1,0.5s-0.4,0.1-0.8,0.1H182.4z M182.4,76.5h4.1c-0.1-0.5-0.3-0.9-0.6-1.2s-0.8-0.5-1.3-0.5
		c-0.6,0-1,0.1-1.4,0.4S182.5,76,182.4,76.5z"/>
	<path id="Combined-Shape_3_" class="st5" d="M191.3,73.4h-0.9c-0.3,0-0.4,0-0.5-0.1s-0.2-0.2-0.2-0.4c0-0.2,0-0.3,0.1-0.4
		s0.3-0.1,0.7-0.1h1.8c0.2,0,0.4,0,0.5,0.1s0.2,0.2,0.2,0.3l2.5,6.2h0.1c0.2,0,0.4,0,0.5,0.1s0.1,0.2,0.1,0.3c0,0.2,0,0.3-0.1,0.4
		s-0.2,0.1-0.5,0.1H194c-0.3,0-0.5,0-0.6-0.1s-0.1-0.2-0.1-0.4c0-0.2,0-0.3,0.1-0.3s0.3-0.1,0.6-0.1h0.6l-0.6-1.5h-3.2l-0.5,1.5h0.6
		c0.3,0,0.5,0,0.6,0.1s0.2,0.2,0.2,0.3c0,0.2,0,0.3-0.1,0.4s-0.3,0.1-0.6,0.1h-1.7c-0.3,0-0.5,0-0.5-0.1s-0.1-0.2-0.1-0.4
		c0-0.2,0-0.3,0.1-0.3s0.3-0.1,0.5-0.1h0.1L191.3,73.4z M191,76.8h2.6l-1.4-3.4L191,76.8z"/>
	<path id="Path_17_" class="st5" d="M199.5,79.1h2.1c0.2,0,0.3,0,0.4,0.1s0.1,0.2,0.1,0.3c0,0.2,0,0.3-0.1,0.4s-0.2,0.1-0.4,0.1
		h-4.2c-0.2,0-0.3,0-0.4-0.1s-0.1-0.2-0.1-0.3c0-0.1,0-0.3,0.1-0.3s0.2-0.1,0.4-0.1h1.1V75h-0.4c-0.4,0-0.7,0-0.8-0.1
		s-0.2-0.2-0.2-0.4c0-0.1,0-0.3,0.1-0.3s0.2-0.1,0.4-0.1h1.4c0.1,0,0.2,0,0.3,0.1s0.1,0.1,0.1,0.2v1.1c0.4-0.5,0.8-0.9,1.3-1.1
		s0.9-0.4,1.4-0.4c0.4,0,0.7,0.1,0.9,0.2s0.3,0.3,0.3,0.6c0,0.2-0.1,0.3-0.2,0.4s-0.2,0.2-0.4,0.2c-0.1,0-0.3-0.1-0.5-0.2
		s-0.4-0.2-0.6-0.2c-0.3,0-0.7,0.1-1,0.4s-0.8,0.6-1.2,1.1V79.1z"/>
	<path id="Combined-Shape_4_" class="st5" d="M205.8,77.3c0,0.6,0.2,1.1,0.6,1.4s0.9,0.5,1.6,0.5c0.5,0,1-0.1,1.6-0.4
		s0.9-0.4,1.1-0.4c0.1,0,0.2,0,0.3,0.1s0.1,0.2,0.1,0.3c0,0.1,0,0.2-0.1,0.3s-0.2,0.2-0.4,0.3c-0.4,0.2-0.9,0.4-1.3,0.5
		s-0.9,0.2-1.3,0.2c-1,0-1.7-0.3-2.3-0.8s-0.9-1.3-0.9-2.2c0-0.9,0.3-1.7,0.9-2.3S207,74,208,74c0.9,0,1.6,0.3,2.2,0.8
		s0.9,1.2,0.9,2c0,0.2,0,0.4-0.1,0.5s-0.4,0.1-0.8,0.1H205.8z M205.8,76.5h4.1c-0.1-0.5-0.3-0.9-0.6-1.2s-0.8-0.5-1.3-0.5
		c-0.6,0-1,0.1-1.4,0.4S205.9,76,205.8,76.5z"/>
	<path id="Combined-Shape_5_" class="st5" d="M217.2,79.2c-0.3,0.3-0.7,0.6-1.1,0.7s-0.8,0.2-1.3,0.2c-0.6,0-1.1-0.2-1.5-0.5
		s-0.6-0.8-0.6-1.4c0-0.7,0.3-1.2,0.8-1.6s1.2-0.6,2.2-0.6c0.2,0,0.5,0,0.7,0s0.5,0.1,0.8,0.1v0c0-0.5-0.1-0.8-0.3-1.1
		s-0.6-0.3-1.1-0.3c-0.3,0-0.7,0.1-1.1,0.3s-0.7,0.3-0.8,0.3c-0.1,0-0.2,0-0.3-0.1s-0.1-0.2-0.1-0.4c0-0.2,0.2-0.5,0.7-0.6
		s1.1-0.3,1.8-0.3c0.7,0,1.3,0.2,1.7,0.6s0.6,0.9,0.6,1.7v2.9h0.3c0.3,0,0.5,0,0.6,0.1s0.2,0.2,0.2,0.3c0,0.2,0,0.3-0.1,0.3
		s-0.2,0.1-0.4,0.1h-1c-0.1,0-0.2,0-0.3-0.1s-0.1-0.2-0.2-0.3L217.2,79.2z M217.1,77.2c-0.2-0.1-0.5-0.1-0.7-0.2S216,77,215.8,77
		c-0.7,0-1.2,0.1-1.5,0.3s-0.6,0.5-0.6,0.9c0,0.3,0.1,0.5,0.4,0.7s0.5,0.3,0.9,0.3c0.5,0,1-0.1,1.5-0.4s0.7-0.6,0.7-0.9V77.2z"/>
	<path id="Path_18_" class="st6" d="M231.3,76.8l-0.8,3c0,0.2-0.1,0.3-0.2,0.3s-0.2,0.1-0.4,0.1c-0.2,0-0.3,0-0.4-0.1
		s-0.2-0.2-0.2-0.4l-1.5-4.6h-0.1c-0.2,0-0.3,0-0.4-0.1s-0.1-0.2-0.1-0.4c0-0.1,0-0.3,0.1-0.3s0.2-0.1,0.4-0.1h1.7
		c0.2,0,0.4,0,0.5,0.1s0.1,0.2,0.1,0.3c0,0.1,0,0.2-0.1,0.3s-0.1,0.1-0.2,0.1c-0.1,0-0.2,0-0.3,0s-0.2,0-0.3,0h-0.4l1.1,3.8l0.8-2.8
		c0-0.2,0.1-0.3,0.2-0.3s0.2-0.1,0.4-0.1c0.2,0,0.3,0,0.4,0.1s0.2,0.2,0.2,0.4l0.8,2.6l1-3.8h-0.4c-0.3,0-0.5,0-0.6-0.1
		s-0.2-0.2-0.2-0.4c0-0.2,0-0.3,0.1-0.3s0.2-0.1,0.4-0.1h1.7c0.1,0,0.2,0,0.3,0.1s0.1,0.2,0.1,0.3c0,0.2,0,0.3-0.1,0.3
		s-0.2,0.1-0.4,0.1l-1.4,4.8c-0.1,0.2-0.1,0.3-0.2,0.3s-0.2,0.1-0.4,0.1c-0.2,0-0.3,0-0.4-0.1s-0.2-0.2-0.2-0.4L231.3,76.8z"/>
	<path id="Path_19_" class="st6" d="M238.5,72.3c0-0.5,0-0.7,0.1-0.9s0.3-0.2,0.5-0.2c0.3,0,0.4,0,0.5,0.1s0.1,0.3,0.1,0.7
		c0,0.4,0,0.6-0.1,0.7s-0.3,0.1-0.5,0.1c-0.3,0-0.4,0-0.5-0.1S238.5,72.6,238.5,72.3z"/>
	<path id="Path_20_" class="st6" d="M239.7,79.1h2c0.2,0,0.3,0,0.4,0.1s0.1,0.2,0.1,0.3c0,0.2,0,0.3-0.1,0.4s-0.2,0.1-0.4,0.1h-4.9
		c-0.2,0-0.3,0-0.4-0.1s-0.1-0.2-0.1-0.3c0-0.1,0-0.3,0.1-0.3s0.2-0.1,0.4-0.1h1.9V75h-1.2c-0.2,0-0.3,0-0.4-0.1s-0.1-0.2-0.1-0.3
		s0-0.3,0.1-0.3s0.2-0.1,0.4-0.1h1.9c0.1,0,0.2,0,0.3,0.1s0.1,0.1,0.1,0.2V79.1z"/>
	<path id="Combined-Shape_6_" class="st6" d="M248.8,80c-0.1,0-0.2,0-0.2-0.1s-0.1-0.1-0.1-0.3v-0.5c-0.3,0.3-0.6,0.6-1,0.7
		s-0.8,0.3-1.2,0.3c-0.8,0-1.5-0.3-2-0.9s-0.8-1.3-0.8-2.1c0-0.9,0.3-1.6,0.9-2.2c0.6-0.6,1.3-0.9,2.2-0.9c0.4,0,0.8,0.1,1.2,0.2
		s0.6,0.4,0.9,0.7v-2.4h-0.3c-0.4,0-0.6,0-0.7-0.1s-0.2-0.2-0.2-0.4c0-0.2,0-0.3,0.1-0.3s0.2-0.1,0.4-0.1h1.3c0.1,0,0.2,0,0.3,0.1
		s0.1,0.1,0.1,0.2v7.2h0.3c0.2,0,0.4,0,0.5,0.1s0.1,0.2,0.1,0.3c0,0.1,0,0.3-0.1,0.3s-0.2,0.1-0.3,0.1H248.8z M244.7,77.1
		c0,0.6,0.2,1.1,0.6,1.4s0.9,0.6,1.4,0.6c0.6,0,1.1-0.2,1.4-0.6s0.6-0.9,0.6-1.5c0-0.6-0.2-1.1-0.6-1.5s-0.9-0.6-1.4-0.6
		c-0.6,0-1.1,0.2-1.4,0.6S244.7,76.5,244.7,77.1z"/>
	<path id="Path_21_" class="st6" d="M256.5,74.5c0.2,0,0.4,0,0.5,0.1s0.1,0.2,0.1,0.3c0,0.1,0,0.3-0.1,0.3s-0.2,0.1-0.4,0.1H254v2.1
		c0,0.7,0.1,1.2,0.3,1.4s0.5,0.3,0.9,0.3c0.4,0,0.8-0.1,1.4-0.3c0.5-0.2,0.9-0.3,1-0.3c0.1,0,0.2,0,0.3,0.1s0.1,0.2,0.1,0.3
		c0,0.1-0.1,0.3-0.2,0.4s-0.3,0.2-0.5,0.3c-0.4,0.2-0.8,0.3-1.1,0.4c-0.3,0.1-0.6,0.1-0.9,0.1c-0.5,0-0.9-0.1-1.2-0.2
		s-0.6-0.4-0.8-0.7c-0.1-0.1-0.1-0.3-0.2-0.5s-0.1-0.5-0.1-0.9v-2.3h-1.1c-0.2,0-0.3,0-0.4-0.1s-0.1-0.2-0.1-0.3
		c0-0.2,0.1-0.3,0.2-0.4s0.3-0.1,0.7-0.1h0.7v-1.6c0-0.2,0-0.3,0.1-0.4s0.2-0.1,0.4-0.1c0.2,0,0.3,0.1,0.4,0.2s0.1,0.3,0.1,0.7v1.3
		H256.5z"/>
	<path id="Path_22_" class="st6" d="M260.1,79.1v-6.5H260c-0.3,0-0.5,0-0.6-0.1s-0.2-0.2-0.2-0.4c0-0.2,0-0.3,0.1-0.3
		s0.2-0.1,0.4-0.1h1c0.1,0,0.2,0,0.3,0.1s0.1,0.1,0.1,0.2v2.9c0.3-0.3,0.6-0.5,0.9-0.6s0.6-0.2,0.9-0.2c0.6,0,1.1,0.2,1.5,0.6
		s0.5,0.9,0.5,1.7v2.9h0.3c0.2,0,0.4,0,0.5,0.1s0.1,0.2,0.1,0.3s0,0.3-0.1,0.3s-0.2,0.1-0.4,0.1h-1.7c-0.2,0-0.3,0-0.4-0.1
		s-0.1-0.2-0.1-0.4c0-0.2,0-0.3,0.1-0.3s0.3-0.1,0.5-0.1h0.2v-2.6c0-0.5-0.1-0.9-0.3-1.1s-0.6-0.4-1-0.4c-0.4,0-0.8,0.1-1.1,0.4
		s-0.5,0.7-0.5,1.1v2.6h0.2c0.3,0,0.4,0,0.5,0.1s0.1,0.2,0.1,0.3c0,0.2,0,0.3-0.1,0.4s-0.2,0.1-0.4,0.1h-1.7c-0.2,0-0.3,0-0.4-0.1
		s-0.1-0.2-0.1-0.3c0-0.2,0-0.3,0.1-0.3s0.3-0.1,0.6-0.1H260.1z"/>
	<path id="Path_23_" class="st6" d="M283.5,79.1v-6.5h-0.1c-0.3,0-0.5,0-0.6-0.1s-0.2-0.2-0.2-0.4c0-0.2,0-0.3,0.1-0.3
		s0.2-0.1,0.4-0.1h1c0.1,0,0.2,0,0.3,0.1s0.1,0.1,0.1,0.2v2.9c0.3-0.3,0.6-0.5,0.9-0.6s0.6-0.2,0.9-0.2c0.6,0,1.1,0.2,1.5,0.6
		s0.5,0.9,0.5,1.7v2.9h0.3c0.2,0,0.4,0,0.5,0.1s0.1,0.2,0.1,0.3s0,0.3-0.1,0.3S289,80,288.8,80h-1.7c-0.2,0-0.3,0-0.4-0.1
		s-0.1-0.2-0.1-0.4c0-0.2,0-0.3,0.1-0.3s0.3-0.1,0.5-0.1h0.2v-2.6c0-0.5-0.1-0.9-0.3-1.1s-0.6-0.4-1-0.4c-0.4,0-0.8,0.1-1.1,0.4
		s-0.5,0.7-0.5,1.1v2.6h0.2c0.3,0,0.4,0,0.5,0.1s0.1,0.2,0.1,0.3c0,0.2,0,0.3-0.1,0.4s-0.2,0.1-0.4,0.1h-1.7c-0.2,0-0.3,0-0.4-0.1
		s-0.1-0.2-0.1-0.3c0-0.2,0-0.3,0.1-0.3s0.3-0.1,0.6-0.1H283.5z"/>
	<path id="Combined-Shape_7_" class="st6" d="M291.6,77.3c0,0.6,0.2,1.1,0.6,1.4s0.9,0.5,1.6,0.5c0.5,0,1-0.1,1.6-0.4
		s0.9-0.4,1.1-0.4c0.1,0,0.2,0,0.3,0.1s0.1,0.2,0.1,0.3c0,0.1,0,0.2-0.1,0.3s-0.2,0.2-0.4,0.3c-0.4,0.2-0.9,0.4-1.3,0.5
		s-0.9,0.2-1.3,0.2c-1,0-1.7-0.3-2.3-0.8s-0.9-1.3-0.9-2.2c0-0.9,0.3-1.7,0.9-2.3s1.4-0.9,2.4-0.9c0.9,0,1.6,0.3,2.2,0.8
		s0.9,1.2,0.9,2c0,0.2,0,0.4-0.1,0.5s-0.4,0.1-0.8,0.1H291.6z M291.6,76.5h4.1c-0.1-0.5-0.3-0.9-0.6-1.2s-0.8-0.5-1.3-0.5
		c-0.6,0-1,0.1-1.4,0.4S291.7,76,291.6,76.5z"/>
	<path id="Path_24_" class="st6" d="M301,72.3c0-0.5,0-0.7,0.1-0.9s0.3-0.2,0.5-0.2c0.3,0,0.4,0,0.5,0.1s0.1,0.3,0.1,0.7
		c0,0.4,0,0.6-0.1,0.7s-0.3,0.1-0.5,0.1c-0.3,0-0.4,0-0.5-0.1S301,72.6,301,72.3z"/>
	<path id="Path_25_" class="st6" d="M302.1,79.1h2c0.2,0,0.3,0,0.4,0.1s0.1,0.2,0.1,0.3c0,0.2,0,0.3-0.1,0.4s-0.2,0.1-0.4,0.1h-4.9
		c-0.2,0-0.3,0-0.4-0.1s-0.1-0.2-0.1-0.3c0-0.1,0-0.3,0.1-0.3s0.2-0.1,0.4-0.1h1.9V75h-1.2c-0.2,0-0.3,0-0.4-0.1s-0.1-0.2-0.1-0.3
		s0-0.3,0.1-0.3s0.2-0.1,0.4-0.1h1.9c0.1,0,0.2,0,0.3,0.1s0.1,0.1,0.1,0.2V79.1z"/>
	<path id="Combined-Shape_8_" class="st6" d="M311.9,79.7c0,0.6,0,1-0.1,1.3s-0.2,0.5-0.3,0.7c-0.2,0.3-0.6,0.6-1,0.7
		s-0.9,0.2-1.5,0.2c-0.5,0-0.8,0-1.1-0.1s-0.3-0.2-0.3-0.4c0-0.1,0.1-0.2,0.2-0.3s0.2-0.1,0.4-0.1c0.1,0,0.3,0,0.5,0s0.4,0,0.5,0
		c0.6,0,1.1-0.1,1.3-0.4s0.4-0.8,0.4-1.5v-0.8c-0.3,0.3-0.5,0.5-0.9,0.7s-0.7,0.2-1.1,0.2c-0.8,0-1.4-0.3-2-0.8s-0.8-1.2-0.8-2
		c0-0.8,0.3-1.5,0.8-2s1.2-0.8,2-0.8c0.3,0,0.6,0.1,1,0.2s0.6,0.3,0.9,0.5v-0.5c0-0.1,0-0.2,0.1-0.2s0.1-0.1,0.3-0.1h1
		c0.2,0,0.3,0,0.4,0.1s0.1,0.2,0.1,0.3c0,0.2-0.1,0.3-0.2,0.4S312.3,75,312,75h-0.1V79.7z M309.2,75.1c-0.6,0-1,0.2-1.4,0.5
		s-0.5,0.8-0.5,1.3c0,0.5,0.2,1,0.5,1.3s0.8,0.5,1.4,0.5c0.6,0,1-0.2,1.4-0.5s0.5-0.8,0.5-1.3s-0.2-1-0.5-1.3S309.7,75.1,309.2,75.1
		z"/>
	<path id="Path_26_" class="st6" d="M314.8,79.1v-6.5h-0.1c-0.3,0-0.5,0-0.6-0.1s-0.2-0.2-0.2-0.4c0-0.2,0-0.3,0.1-0.3
		s0.2-0.1,0.4-0.1h1c0.1,0,0.2,0,0.3,0.1s0.1,0.1,0.1,0.2v2.9c0.3-0.3,0.6-0.5,0.9-0.6s0.6-0.2,0.9-0.2c0.6,0,1.1,0.2,1.5,0.6
		s0.5,0.9,0.5,1.7v2.9h0.3c0.2,0,0.4,0,0.5,0.1s0.1,0.2,0.1,0.3s0,0.3-0.1,0.3S320.2,80,320,80h-1.7c-0.2,0-0.3,0-0.4-0.1
		s-0.1-0.2-0.1-0.4c0-0.2,0-0.3,0.1-0.3s0.3-0.1,0.5-0.1h0.2v-2.6c0-0.5-0.1-0.9-0.3-1.1s-0.6-0.4-1-0.4c-0.4,0-0.8,0.1-1.1,0.4
		s-0.5,0.7-0.5,1.1v2.6h0.2c0.3,0,0.4,0,0.5,0.1s0.1,0.2,0.1,0.3c0,0.2,0,0.3-0.1,0.4s-0.2,0.1-0.4,0.1h-1.7c-0.2,0-0.3,0-0.4-0.1
		s-0.1-0.2-0.1-0.3c0-0.2,0-0.3,0.1-0.3s0.3-0.1,0.6-0.1H314.8z"/>
	<path id="Path_27_" class="st6" d="M326.7,74.5c0.2,0,0.4,0,0.5,0.1s0.1,0.2,0.1,0.3c0,0.1,0,0.3-0.1,0.3s-0.2,0.1-0.4,0.1h-2.6
		v2.1c0,0.7,0.1,1.2,0.3,1.4s0.5,0.3,0.9,0.3c0.4,0,0.8-0.1,1.4-0.3s0.9-0.3,1-0.3c0.1,0,0.2,0,0.3,0.1s0.1,0.2,0.1,0.3
		c0,0.1-0.1,0.3-0.2,0.4s-0.3,0.2-0.5,0.3c-0.4,0.2-0.8,0.3-1.1,0.4s-0.6,0.1-0.9,0.1c-0.5,0-0.9-0.1-1.2-0.2s-0.6-0.4-0.8-0.7
		c-0.1-0.1-0.1-0.3-0.2-0.5s-0.1-0.5-0.1-0.9v-2.3h-1.1c-0.2,0-0.3,0-0.4-0.1s-0.1-0.2-0.1-0.3c0-0.2,0.1-0.3,0.2-0.4
		s0.3-0.1,0.7-0.1h0.7v-1.6c0-0.2,0-0.3,0.1-0.4s0.2-0.1,0.4-0.1c0.2,0,0.3,0.1,0.4,0.2s0.1,0.3,0.1,0.7v1.3H326.7z"/>
	<path id="Path_28_" class="st7" d="M81.8,91.5L81.8,91.5c0-0.2,0-0.3,0.1-0.3s0.2-0.1,0.4-0.1c0.2,0,0.3,0.1,0.4,0.2
		s0.1,0.3,0.1,0.6V93c0,0.2,0,0.3-0.1,0.4s-0.2,0.1-0.4,0.1c-0.1,0-0.2,0-0.3-0.1s-0.2-0.2-0.3-0.4c-0.2-0.3-0.4-0.6-0.7-0.8
		s-0.6-0.3-1-0.3c-0.7,0-1.2,0.2-1.6,0.6s-0.6,0.9-0.6,1.5c0,0.6,0.2,1.1,0.6,1.5s0.9,0.6,1.5,0.6c0.3,0,0.6,0,0.8-0.1
		s0.5-0.2,0.7-0.4c0.1-0.1,0.2-0.1,0.3-0.2c0.3-0.2,0.5-0.3,0.6-0.3c0.1,0,0.2,0,0.3,0.1s0.1,0.2,0.1,0.3c0,0.3-0.3,0.7-0.9,1
		s-1.3,0.5-2,0.5c-0.9,0-1.7-0.3-2.3-0.9s-0.9-1.3-0.9-2.2s0.3-1.6,0.9-2.2s1.4-0.9,2.3-0.9c0.3,0,0.6,0,1,0.1S81.4,91.3,81.8,91.5z
		"/>
	<path id="Combined-Shape_9_" class="st7" d="M91,94.1c0,0.9-0.3,1.6-0.9,2.2s-1.4,0.9-2.4,0.9c-1,0-1.8-0.3-2.4-0.9
		s-0.9-1.3-0.9-2.2s0.3-1.6,0.9-2.2s1.4-0.9,2.4-0.9s1.8,0.3,2.4,0.9S91,93.2,91,94.1z M87.7,96.3c0.7,0,1.2-0.2,1.6-0.6
		s0.6-0.9,0.6-1.6s-0.2-1.2-0.6-1.6s-1-0.6-1.6-0.6s-1.2,0.2-1.6,0.6s-0.6,0.9-0.6,1.6c0,0.6,0.2,1.2,0.6,1.6S87,96.3,87.7,96.3z"/>
	<path id="Path_29_" class="st7" d="M93.1,96.1V92H93c-0.3,0-0.5,0-0.6-0.1s-0.2-0.2-0.2-0.4c0-0.2,0-0.3,0.1-0.3s0.2-0.1,0.4-0.1
		h0.9c0.1,0,0.2,0,0.3,0.1s0.1,0.1,0.1,0.2v0.4c0.3-0.3,0.6-0.5,0.9-0.6S95.6,91,96,91c0.6,0,1.1,0.2,1.5,0.6s0.5,0.9,0.5,1.7v2.9
		h0.3c0.2,0,0.4,0,0.5,0.1s0.1,0.2,0.1,0.3c0,0.2,0,0.3-0.1,0.4S98.5,97,98.2,97h-1.4c-0.3,0-0.4,0-0.5-0.1s-0.1-0.2-0.1-0.4
		c0-0.2,0-0.3,0.1-0.3s0.3-0.1,0.5-0.1H97v-2.6c0-0.5-0.1-0.9-0.3-1.1s-0.6-0.4-1-0.4c-0.4,0-0.8,0.1-1.1,0.4s-0.5,0.7-0.5,1.1v2.6
		h0.2c0.3,0,0.4,0,0.5,0.1s0.1,0.2,0.1,0.3c0,0.2,0,0.3-0.1,0.4S94.6,97,94.3,97h-1.5c-0.2,0-0.3,0-0.4-0.1s-0.1-0.2-0.1-0.3
		c0-0.2,0-0.3,0.1-0.3s0.3-0.1,0.6-0.1H93.1z"/>
	<path id="Path_30_" class="st7" d="M100.5,96.5v-1.1c0-0.2,0-0.3,0.1-0.4s0.2-0.1,0.3-0.1c0.2,0,0.3,0.1,0.4,0.4
		c0.1,0.1,0.1,0.3,0.2,0.3c0.2,0.2,0.4,0.4,0.8,0.5s0.7,0.2,1.1,0.2c0.4,0,0.8-0.1,1.1-0.3s0.4-0.4,0.4-0.7c0-0.3-0.1-0.5-0.3-0.6
		c-0.2-0.1-0.6-0.2-1.1-0.2h-0.3c-0.9,0-1.5-0.2-2-0.5s-0.7-0.7-0.7-1.3c0-0.6,0.2-1,0.7-1.3s1.1-0.5,1.9-0.5c0.3,0,0.7,0,1,0.1
		c0.3,0.1,0.5,0.1,0.5,0.1c0,0,0.1,0,0.3-0.1s0.3-0.1,0.4-0.1c0.1,0,0.3,0.1,0.3,0.2s0.1,0.3,0.1,0.5v0.7c0,0.2,0,0.4-0.1,0.5
		s-0.2,0.1-0.3,0.1c-0.1,0-0.3-0.1-0.5-0.3c-0.1-0.1-0.2-0.3-0.3-0.3c-0.2-0.2-0.5-0.4-0.7-0.4s-0.6-0.1-0.9-0.1
		c-0.4,0-0.7,0.1-1,0.3s-0.4,0.4-0.4,0.7c0,0.3,0.1,0.5,0.4,0.6s0.8,0.2,1.6,0.2c0.9,0,1.5,0.2,1.9,0.5s0.6,0.7,0.6,1.3
		c0,0.6-0.2,1-0.7,1.4s-1.1,0.5-1.8,0.5c-0.2,0-0.5,0-0.8-0.1s-0.7-0.1-1.1-0.2c-0.1,0.1-0.3,0.2-0.4,0.2s-0.2,0.1-0.3,0.1
		c-0.1,0-0.3-0.1-0.3-0.2S100.5,96.7,100.5,96.5z"/>
	<path id="Combined-Shape_10_" class="st7" d="M114.4,94.1c0,0.9-0.3,1.6-0.9,2.2s-1.4,0.9-2.4,0.9c-1,0-1.8-0.3-2.4-0.9
		s-0.9-1.3-0.9-2.2s0.3-1.6,0.9-2.2s1.4-0.9,2.4-0.9s1.8,0.3,2.4,0.9S114.4,93.2,114.4,94.1z M111.1,96.3c0.7,0,1.2-0.2,1.6-0.6
		s0.6-0.9,0.6-1.6s-0.2-1.2-0.6-1.6s-1-0.6-1.6-0.6s-1.2,0.2-1.6,0.6s-0.6,0.9-0.6,1.6c0,0.6,0.2,1.2,0.6,1.6S110.5,96.3,111.1,96.3
		z"/>
	<path id="Path_31_" class="st7" d="M118.5,89.6h-1.1c-0.4,0-0.7,0-0.8-0.1s-0.2-0.2-0.2-0.4c0-0.2,0-0.3,0.1-0.3s0.2-0.1,0.4-0.1
		h2.1c0.1,0,0.2,0,0.3,0.1s0.1,0.1,0.1,0.2v7.2h2c0.2,0,0.3,0,0.4,0.1s0.1,0.2,0.1,0.3c0,0.2,0,0.3-0.1,0.4s-0.2,0.1-0.4,0.1h-4.7
		c-0.2,0-0.3,0-0.4-0.1s-0.1-0.2-0.1-0.3c0-0.1,0-0.3,0.1-0.3s0.2-0.1,0.4-0.1h1.8V89.6z"/>
	<path id="Combined-Shape_11_" class="st7" d="M124.6,94.3c0,0.6,0.2,1.1,0.6,1.4s0.9,0.5,1.6,0.5c0.5,0,1-0.1,1.6-0.4
		s0.9-0.4,1.1-0.4c0.1,0,0.2,0,0.3,0.1s0.1,0.2,0.1,0.3c0,0.1,0,0.2-0.1,0.3s-0.2,0.2-0.4,0.3c-0.4,0.2-0.9,0.4-1.3,0.5
		s-0.9,0.2-1.3,0.2c-1,0-1.7-0.3-2.3-0.8s-0.9-1.3-0.9-2.2c0-0.9,0.3-1.7,0.9-2.3s1.4-0.9,2.4-0.9c0.9,0,1.6,0.3,2.2,0.8
		s0.9,1.2,0.9,2c0,0.2,0,0.4-0.1,0.5s-0.4,0.1-0.8,0.1H124.6z M124.6,93.5h4.1c-0.1-0.5-0.3-0.9-0.6-1.2s-0.8-0.5-1.3-0.5
		c-0.6,0-1,0.1-1.4,0.4S124.7,93,124.6,93.5z"/>
	<path id="Path_32_" class="st5" d="M141.9,89.6h-1.1c-0.4,0-0.7,0-0.8-0.1s-0.2-0.2-0.2-0.4c0-0.2,0-0.3,0.1-0.3s0.2-0.1,0.4-0.1
		h2.1c0.1,0,0.2,0,0.3,0.1s0.1,0.1,0.1,0.2v7.2h2c0.2,0,0.3,0,0.4,0.1s0.1,0.2,0.1,0.3c0,0.2,0,0.3-0.1,0.4S145,97,144.8,97h-4.7
		c-0.2,0-0.3,0-0.4-0.1s-0.1-0.2-0.1-0.3c0-0.1,0-0.3,0.1-0.3s0.2-0.1,0.4-0.1h1.8V89.6z"/>
	<path id="Combined-Shape_12_" class="st5" d="M153.4,94.1c0,0.9-0.3,1.6-0.9,2.2s-1.4,0.9-2.4,0.9c-1,0-1.8-0.3-2.4-0.9
		s-0.9-1.3-0.9-2.2s0.3-1.6,0.9-2.2s1.4-0.9,2.4-0.9s1.8,0.3,2.4,0.9S153.4,93.2,153.4,94.1z M150.1,96.3c0.7,0,1.2-0.2,1.6-0.6
		s0.6-0.9,0.6-1.6s-0.2-1.2-0.6-1.6s-1-0.6-1.6-0.6s-1.2,0.2-1.6,0.6s-0.6,0.9-0.6,1.6c0,0.6,0.2,1.2,0.6,1.6S149.5,96.3,150.1,96.3
		z"/>
	<path id="Combined-Shape_13_" class="st5" d="M160.5,96.7c0,0.6,0,1-0.1,1.3s-0.2,0.5-0.3,0.7c-0.2,0.3-0.6,0.6-1,0.7
		s-0.9,0.2-1.5,0.2c-0.5,0-0.8,0-1.1-0.1s-0.3-0.2-0.3-0.4c0-0.1,0.1-0.2,0.2-0.3s0.2-0.1,0.4-0.1c0.1,0,0.3,0,0.5,0s0.4,0,0.5,0
		c0.6,0,1.1-0.1,1.3-0.4s0.4-0.8,0.4-1.5v-0.8c-0.3,0.3-0.5,0.5-0.9,0.7s-0.7,0.2-1.1,0.2c-0.8,0-1.4-0.3-2-0.8s-0.8-1.2-0.8-2
		c0-0.8,0.3-1.5,0.8-2s1.2-0.8,2-0.8c0.3,0,0.6,0.1,1,0.2s0.6,0.3,0.9,0.5v-0.5c0-0.1,0-0.2,0.1-0.2s0.1-0.1,0.3-0.1h1
		c0.2,0,0.3,0,0.4,0.1s0.1,0.2,0.1,0.3c0,0.2-0.1,0.3-0.2,0.4s-0.3,0.1-0.6,0.1h-0.1V96.7z M157.7,92.1c-0.6,0-1,0.2-1.4,0.5
		s-0.5,0.8-0.5,1.3c0,0.5,0.2,1,0.5,1.3s0.8,0.5,1.4,0.5c0.6,0,1-0.2,1.4-0.5s0.5-0.8,0.5-1.3s-0.2-1-0.5-1.3S158.3,92.1,157.7,92.1
		z"/>
	<path id="Path_33_" class="st6" d="M173.5,93.8l-0.8,3c0,0.2-0.1,0.3-0.2,0.3s-0.2,0.1-0.4,0.1c-0.2,0-0.3,0-0.4-0.1
		s-0.2-0.2-0.2-0.4L170,92H170c-0.2,0-0.3,0-0.4-0.1s-0.1-0.2-0.1-0.4c0-0.1,0-0.3,0.1-0.3s0.2-0.1,0.4-0.1h1.7c0.2,0,0.4,0,0.5,0.1
		s0.1,0.2,0.1,0.3c0,0.1,0,0.2-0.1,0.3S172.1,92,172,92c-0.1,0-0.2,0-0.3,0s-0.2,0-0.3,0H171l1.1,3.8l0.8-2.8c0-0.2,0.1-0.3,0.2-0.3
		s0.2-0.1,0.4-0.1c0.2,0,0.3,0,0.4,0.1s0.2,0.2,0.2,0.4l0.8,2.6l1-3.8h-0.4c-0.3,0-0.5,0-0.6-0.1s-0.2-0.2-0.2-0.4
		c0-0.2,0-0.3,0.1-0.3s0.2-0.1,0.4-0.1h1.7c0.1,0,0.2,0,0.3,0.1s0.1,0.2,0.1,0.3c0,0.2,0,0.3-0.1,0.3s-0.2,0.1-0.4,0.1l-1.4,4.8
		c-0.1,0.2-0.1,0.3-0.2,0.3s-0.2,0.1-0.4,0.1c-0.2,0-0.3,0-0.4-0.1s-0.2-0.2-0.2-0.4L173.5,93.8z"/>
	<path id="Path_34_" class="st6" d="M180.7,89.3c0-0.5,0-0.7,0.1-0.9s0.3-0.2,0.5-0.2c0.3,0,0.4,0,0.5,0.1s0.1,0.3,0.1,0.7
		c0,0.4,0,0.6-0.1,0.7s-0.3,0.1-0.5,0.1c-0.3,0-0.4,0-0.5-0.1S180.7,89.6,180.7,89.3z"/>
	<path id="Path_35_" class="st6" d="M181.9,96.1h2c0.2,0,0.3,0,0.4,0.1s0.1,0.2,0.1,0.3c0,0.2,0,0.3-0.1,0.4s-0.2,0.1-0.4,0.1H179
		c-0.2,0-0.3,0-0.4-0.1s-0.1-0.2-0.1-0.3c0-0.1,0-0.3,0.1-0.3s0.2-0.1,0.4-0.1h1.9V92h-1.2c-0.2,0-0.3,0-0.4-0.1s-0.1-0.2-0.1-0.3
		s0-0.3,0.1-0.3s0.2-0.1,0.4-0.1h1.9c0.1,0,0.2,0,0.3,0.1s0.1,0.1,0.1,0.2V96.1z"/>
	<path id="Combined-Shape_14_" class="st6" d="M191,97c-0.1,0-0.2,0-0.2-0.1s-0.1-0.1-0.1-0.3v-0.5c-0.3,0.3-0.6,0.6-1,0.7
		s-0.8,0.3-1.2,0.3c-0.8,0-1.5-0.3-2-0.9s-0.8-1.3-0.8-2.1c0-0.9,0.3-1.6,0.9-2.2s1.3-0.9,2.2-0.9c0.4,0,0.8,0.1,1.2,0.2
		s0.6,0.4,0.9,0.7v-2.4h-0.3c-0.4,0-0.6,0-0.7-0.1s-0.2-0.2-0.2-0.4c0-0.2,0-0.3,0.1-0.3s0.2-0.1,0.4-0.1h1.3c0.1,0,0.2,0,0.3,0.1
		s0.1,0.1,0.1,0.2v7.2h0.3c0.2,0,0.4,0,0.5,0.1s0.1,0.2,0.1,0.3c0,0.1,0,0.3-0.1,0.3s-0.2,0.1-0.3,0.1H191z M186.9,94.1
		c0,0.6,0.2,1.1,0.6,1.4s0.9,0.6,1.4,0.6c0.6,0,1.1-0.2,1.4-0.6s0.6-0.9,0.6-1.5c0-0.6-0.2-1.1-0.6-1.5s-0.9-0.6-1.4-0.6
		c-0.6,0-1.1,0.2-1.4,0.6S186.9,93.5,186.9,94.1z"/>
	<path id="Path_36_" class="st6" d="M198.6,91.5c0.2,0,0.4,0,0.5,0.1s0.1,0.2,0.1,0.3c0,0.1,0,0.3-0.1,0.3s-0.2,0.1-0.4,0.1h-2.6
		v2.1c0,0.7,0.1,1.2,0.3,1.4s0.5,0.3,0.9,0.3c0.4,0,0.8-0.1,1.4-0.3c0.5-0.2,0.9-0.3,1-0.3c0.1,0,0.2,0,0.3,0.1s0.1,0.2,0.1,0.3
		c0,0.1-0.1,0.3-0.2,0.4s-0.3,0.2-0.5,0.3c-0.4,0.2-0.8,0.3-1.1,0.4s-0.6,0.1-0.9,0.1c-0.5,0-0.9-0.1-1.2-0.2s-0.6-0.4-0.8-0.7
		c-0.1-0.1-0.1-0.3-0.2-0.5s-0.1-0.5-0.1-0.9v-2.3h-1.1c-0.2,0-0.3,0-0.4-0.1s-0.1-0.2-0.1-0.3c0-0.2,0.1-0.3,0.2-0.4
		s0.3-0.1,0.7-0.1h0.7v-1.6c0-0.2,0-0.3,0.1-0.4s0.2-0.1,0.4-0.1c0.2,0,0.3,0.1,0.4,0.2s0.1,0.3,0.1,0.7v1.3H198.6z"/>
	<path id="Path_37_" class="st6" d="M202.3,96.1v-6.5h-0.1c-0.3,0-0.5,0-0.6-0.1s-0.2-0.2-0.2-0.4c0-0.2,0-0.3,0.1-0.3
		s0.2-0.1,0.4-0.1h1c0.1,0,0.2,0,0.3,0.1s0.1,0.1,0.1,0.2v2.9c0.3-0.3,0.6-0.5,0.9-0.6s0.6-0.2,0.9-0.2c0.6,0,1.1,0.2,1.5,0.6
		s0.5,0.9,0.5,1.7v2.9h0.3c0.2,0,0.4,0,0.5,0.1s0.1,0.2,0.1,0.3s0,0.3-0.1,0.3s-0.2,0.1-0.4,0.1h-1.7c-0.2,0-0.3,0-0.4-0.1
		s-0.1-0.2-0.1-0.4c0-0.2,0-0.3,0.1-0.3s0.3-0.1,0.5-0.1h0.2v-2.6c0-0.5-0.1-0.9-0.3-1.1s-0.6-0.4-1-0.4c-0.4,0-0.8,0.1-1.1,0.4
		s-0.5,0.7-0.5,1.1v2.6h0.2c0.3,0,0.4,0,0.5,0.1s0.1,0.2,0.1,0.3c0,0.2,0,0.3-0.1,0.4s-0.2,0.1-0.4,0.1H202c-0.2,0-0.3,0-0.4-0.1
		s-0.1-0.2-0.1-0.3c0-0.2,0-0.3,0.1-0.3s0.3-0.1,0.6-0.1H202.3z"/>
	<path id="Path_38_" class="st6" d="M233.5,96.1v-6.5h-0.1c-0.3,0-0.5,0-0.6-0.1s-0.2-0.2-0.2-0.4c0-0.2,0-0.3,0.1-0.3
		s0.2-0.1,0.4-0.1h1c0.1,0,0.2,0,0.3,0.1s0.1,0.1,0.1,0.2v2.9c0.3-0.3,0.6-0.5,0.9-0.6s0.6-0.2,0.9-0.2c0.6,0,1.1,0.2,1.5,0.6
		s0.5,0.9,0.5,1.7v2.9h0.3c0.2,0,0.4,0,0.5,0.1s0.1,0.2,0.1,0.3s0,0.3-0.1,0.3S239,97,238.8,97h-1.7c-0.2,0-0.3,0-0.4-0.1
		s-0.1-0.2-0.1-0.4c0-0.2,0-0.3,0.1-0.3s0.3-0.1,0.5-0.1h0.2v-2.6c0-0.5-0.1-0.9-0.3-1.1s-0.6-0.4-1-0.4c-0.4,0-0.8,0.1-1.1,0.4
		s-0.5,0.7-0.5,1.1v2.6h0.2c0.3,0,0.4,0,0.5,0.1s0.1,0.2,0.1,0.3c0,0.2,0,0.3-0.1,0.4s-0.2,0.1-0.4,0.1h-1.7c-0.2,0-0.3,0-0.4-0.1
		s-0.1-0.2-0.1-0.3c0-0.2,0-0.3,0.1-0.3s0.3-0.1,0.6-0.1H233.5z"/>
	<path id="Combined-Shape_15_" class="st6" d="M241.6,94.3c0,0.6,0.2,1.1,0.6,1.4s0.9,0.5,1.6,0.5c0.5,0,1-0.1,1.6-0.4
		s0.9-0.4,1.1-0.4c0.1,0,0.2,0,0.3,0.1s0.1,0.2,0.1,0.3c0,0.1,0,0.2-0.1,0.3s-0.2,0.2-0.4,0.3c-0.4,0.2-0.9,0.4-1.3,0.5
		s-0.9,0.2-1.3,0.2c-1,0-1.7-0.3-2.3-0.8s-0.9-1.3-0.9-2.2c0-0.9,0.3-1.7,0.9-2.3s1.4-0.9,2.4-0.9c0.9,0,1.6,0.3,2.2,0.8
		s0.9,1.2,0.9,2c0,0.2,0,0.4-0.1,0.5s-0.4,0.1-0.8,0.1H241.6z M241.6,93.5h4.1c-0.1-0.5-0.3-0.9-0.6-1.2s-0.8-0.5-1.3-0.5
		c-0.6,0-1,0.1-1.4,0.4S241.7,93,241.6,93.5z"/>
	<path id="Path_39_" class="st6" d="M250.9,89.3c0-0.5,0-0.7,0.1-0.9s0.3-0.2,0.5-0.2c0.3,0,0.4,0,0.5,0.1s0.1,0.3,0.1,0.7
		c0,0.4,0,0.6-0.1,0.7s-0.3,0.1-0.5,0.1c-0.3,0-0.4,0-0.5-0.1S250.9,89.6,250.9,89.3z"/>
	<path id="Path_40_" class="st6" d="M252.1,96.1h2c0.2,0,0.3,0,0.4,0.1s0.1,0.2,0.1,0.3c0,0.2,0,0.3-0.1,0.4s-0.2,0.1-0.4,0.1h-4.9
		c-0.2,0-0.3,0-0.4-0.1s-0.1-0.2-0.1-0.3c0-0.1,0-0.3,0.1-0.3s0.2-0.1,0.4-0.1h1.9V92h-1.2c-0.2,0-0.3,0-0.4-0.1s-0.1-0.2-0.1-0.3
		s0-0.3,0.1-0.3s0.2-0.1,0.4-0.1h1.9c0.1,0,0.2,0,0.3,0.1s0.1,0.1,0.1,0.2V96.1z"/>
	<path id="Combined-Shape_16_" class="st6" d="M261.9,96.7c0,0.6,0,1-0.1,1.3s-0.2,0.5-0.3,0.7c-0.2,0.3-0.6,0.6-1,0.7
		s-0.9,0.2-1.5,0.2c-0.5,0-0.8,0-1.1-0.1s-0.3-0.2-0.3-0.4c0-0.1,0.1-0.2,0.2-0.3s0.2-0.1,0.4-0.1c0.1,0,0.3,0,0.5,0s0.4,0,0.5,0
		c0.6,0,1.1-0.1,1.3-0.4s0.4-0.8,0.4-1.5v-0.8c-0.3,0.3-0.5,0.5-0.9,0.7s-0.7,0.2-1.1,0.2c-0.8,0-1.4-0.3-2-0.8s-0.8-1.2-0.8-2
		c0-0.8,0.3-1.5,0.8-2s1.2-0.8,2-0.8c0.3,0,0.6,0.1,1,0.2s0.6,0.3,0.9,0.5v-0.5c0-0.1,0-0.2,0.1-0.2s0.1-0.1,0.3-0.1h1
		c0.2,0,0.3,0,0.4,0.1s0.1,0.2,0.1,0.3c0,0.2-0.1,0.3-0.2,0.4S262.3,92,262,92h-0.1V96.7z M259.1,92.1c-0.6,0-1,0.2-1.4,0.5
		s-0.5,0.8-0.5,1.3c0,0.5,0.2,1,0.5,1.3s0.8,0.5,1.4,0.5c0.6,0,1-0.2,1.4-0.5s0.5-0.8,0.5-1.3s-0.2-1-0.5-1.3S259.7,92.1,259.1,92.1
		z"/>
	<path id="Path_41_" class="st6" d="M264.7,96.1v-6.5h-0.1c-0.3,0-0.5,0-0.6-0.1s-0.2-0.2-0.2-0.4c0-0.2,0-0.3,0.1-0.3
		s0.2-0.1,0.4-0.1h1c0.1,0,0.2,0,0.3,0.1s0.1,0.1,0.1,0.2v2.9c0.3-0.3,0.6-0.5,0.9-0.6s0.6-0.2,0.9-0.2c0.6,0,1.1,0.2,1.5,0.6
		s0.5,0.9,0.5,1.7v2.9h0.3c0.2,0,0.4,0,0.5,0.1s0.1,0.2,0.1,0.3s0,0.3-0.1,0.3S270.2,97,270,97h-1.7c-0.2,0-0.3,0-0.4-0.1
		s-0.1-0.2-0.1-0.4c0-0.2,0-0.3,0.1-0.3s0.3-0.1,0.5-0.1h0.2v-2.6c0-0.5-0.1-0.9-0.3-1.1s-0.6-0.4-1-0.4c-0.4,0-0.8,0.1-1.1,0.4
		s-0.5,0.7-0.5,1.1v2.6h0.2c0.3,0,0.4,0,0.5,0.1s0.1,0.2,0.1,0.3c0,0.2,0,0.3-0.1,0.4s-0.2,0.1-0.4,0.1h-1.7c-0.2,0-0.3,0-0.4-0.1
		s-0.1-0.2-0.1-0.3c0-0.2,0-0.3,0.1-0.3s0.3-0.1,0.6-0.1H264.7z"/>
	<path id="Path_42_" class="st6" d="M276.7,91.5c0.2,0,0.4,0,0.5,0.1s0.1,0.2,0.1,0.3c0,0.1,0,0.3-0.1,0.3s-0.2,0.1-0.4,0.1h-2.6
		v2.1c0,0.7,0.1,1.2,0.3,1.4s0.5,0.3,0.9,0.3c0.4,0,0.8-0.1,1.4-0.3s0.9-0.3,1-0.3c0.1,0,0.2,0,0.3,0.1s0.1,0.2,0.1,0.3
		c0,0.1-0.1,0.3-0.2,0.4s-0.3,0.2-0.5,0.3c-0.4,0.2-0.8,0.3-1.1,0.4s-0.6,0.1-0.9,0.1c-0.5,0-0.9-0.1-1.2-0.2s-0.6-0.4-0.8-0.7
		c-0.1-0.1-0.1-0.3-0.2-0.5s-0.1-0.5-0.1-0.9v-2.3h-1.1c-0.2,0-0.3,0-0.4-0.1s-0.1-0.2-0.1-0.3c0-0.2,0.1-0.3,0.2-0.4
		s0.3-0.1,0.7-0.1h0.7v-1.6c0-0.2,0-0.3,0.1-0.4s0.2-0.1,0.4-0.1c0.2,0,0.3,0.1,0.4,0.2s0.1,0.3,0.1,0.7v1.3H276.7z"/>
</g>
</svg>
